<svg xmlns="http://www.w3.org/2000/svg" xmlns:xlink="http://www.w3.org/1999/xlink" width="1440" height="700" viewBox="0 0 1440 700"><path fill="#181644" d="M1440 700V0H0v700"/><defs><path id="a" d="M0 700V0h1440v700"/></defs><clipPath id="b"><use xlink:href="#a" overflow="visible"/></clipPath><g opacity=".15" clip-path="url(#b)"><defs><path id="c" d="M720 557.868h27.376v27.376H720z"/></defs><clipPath id="e"><use xlink:href="#c" overflow="visible"/></clipPath><defs><filter id="d" filterUnits="userSpaceOnUse" x="720" y="557.868" width="27.376" height="27.376"><feFlood result="back" flood-color="#fff" flood-opacity="1"/><feBlend in="SourceGraphic" in2="back"/></filter></defs><mask maskUnits="userSpaceOnUse" x="720" y="557.868" width="27.376" height="27.376" id="h"><g enable-background="new" filter="url(#d)"><defs><path id="f" d="M717.597 555.118h32v33h-32z"/></defs><clipPath id="g" clip-path="url(#e)"><use xlink:href="#f" overflow="visible"/></clipPath><g clip-path="url(#g)"><image width="32" height="33" xlink:href="93F0D40D7CB397CF.jpg" transform="translate(717.597 555.118)" overflow="visible"/></g></g></mask><g clip-path="url(#e)" mask="url(#h)"><defs><path id="i" d="M720 557.868h27.376v27.376H720z"/></defs><clipPath id="j"><use xlink:href="#i" overflow="visible"/></clipPath><path d="M742.353 566.739a3.85 3.85 0 0 1-3.849-3.849c0-2.515-1.839-4.762-4.343-5a4.817 4.817 0 0 0-5.289 4.793v.207a3.85 3.85 0 0 1-3.849 3.849c-2.516 0-4.762 1.84-5.001 4.344a4.817 4.817 0 0 0 4.794 5.289h.207a3.85 3.85 0 0 1 3.849 3.849c0 2.516 1.839 4.762 4.343 5.001a4.818 4.818 0 0 0 5.289-4.794v-.207a3.85 3.85 0 0 1 3.849-3.849h.207a4.819 4.819 0 0 0 4.794-5.289c-.24-2.504-2.486-4.344-5.001-4.344" clip-path="url(#j)" fill="#fff"/></g></g><g opacity=".15" clip-path="url(#b)"><defs><path id="k" d="M1221.57 94.983h27.38v27.376h-27.38z"/></defs><clipPath id="m"><use xlink:href="#k" overflow="visible"/></clipPath><defs><filter id="l" filterUnits="userSpaceOnUse" x="1221.57" y="94.983" width="27.38" height="27.376"><feFlood result="back" flood-color="#fff" flood-opacity="1"/><feBlend in="SourceGraphic" in2="back"/></filter></defs><mask maskUnits="userSpaceOnUse" x="1221.57" y="94.983" width="27.38" height="27.376" id="p"><g enable-background="new" filter="url(#l)"><defs><path id="n" d="M1219.168 92.233h32v33h-32z"/></defs><clipPath id="o" clip-path="url(#m)"><use xlink:href="#n" overflow="visible"/></clipPath><g clip-path="url(#o)"><image width="32" height="33" xlink:href="93F0D40D7CB397C4.jpg" transform="translate(1219.168 92.233)" overflow="visible"/></g></g></mask><g clip-path="url(#m)" mask="url(#p)"><defs><path id="q" d="M1221.57 94.983h27.38v27.376h-27.38z"/></defs><clipPath id="r"><use xlink:href="#q" overflow="visible"/></clipPath><path d="M1243.924 103.855a3.85 3.85 0 0 1-3.85-3.849c0-2.515-1.839-4.762-4.343-5.001a4.817 4.817 0 0 0-5.289 4.794v.207a3.849 3.849 0 0 1-3.849 3.849c-2.516 0-4.762 1.839-5.001 4.343a4.819 4.819 0 0 0 4.794 5.289h.207a3.849 3.849 0 0 1 3.849 3.849c0 2.515 1.839 4.762 4.343 5a4.816 4.816 0 0 0 5.289-4.793v-.207a3.85 3.85 0 0 1 3.85-3.849h.207a4.818 4.818 0 0 0 4.793-5.289c-.238-2.504-2.485-4.343-5-4.343" clip-path="url(#r)" fill="#fff"/></g></g><g opacity=".15" clip-path="url(#b)"><defs><path id="s" d="M322.015 198.335h27.376v27.376h-27.376z"/></defs><clipPath id="u"><use xlink:href="#s" overflow="visible"/></clipPath><defs><filter id="t" filterUnits="userSpaceOnUse" x="322.015" y="198.335" width="27.376" height="27.376"><feFlood result="back" flood-color="#fff" flood-opacity="1"/><feBlend in="SourceGraphic" in2="back"/></filter></defs><mask maskUnits="userSpaceOnUse" x="322.015" y="198.335" width="27.376" height="27.376" id="x"><g enable-background="new" filter="url(#t)"><defs><path id="v" d="M319.612 195.585h32v33h-32z"/></defs><clipPath id="w" clip-path="url(#u)"><use xlink:href="#v" overflow="visible"/></clipPath><g clip-path="url(#w)"><image width="32" height="33" xlink:href="93F0D40D7CB397C5.jpg" transform="translate(319.612 195.585)" overflow="visible"/></g></g></mask><g clip-path="url(#u)" mask="url(#x)"><defs><path id="y" d="M322.015 198.335h27.376v27.376h-27.376z"/></defs><clipPath id="z"><use xlink:href="#y" overflow="visible"/></clipPath><path d="M344.368 207.207a3.85 3.85 0 0 1-3.849-3.849c0-2.515-1.838-4.761-4.343-5a4.817 4.817 0 0 0-5.289 4.793v.207a3.849 3.849 0 0 1-3.849 3.849c-2.515 0-4.761 1.839-5 4.343a4.816 4.816 0 0 0 4.793 5.289h.207a3.849 3.849 0 0 1 3.849 3.849c0 2.516 1.839 4.762 4.343 5.001a4.817 4.817 0 0 0 5.289-4.794v-.207a3.85 3.85 0 0 1 3.849-3.849h.207a4.816 4.816 0 0 0 4.793-5.289c-.238-2.505-2.484-4.343-5-4.343" clip-path="url(#z)" fill="#fff"/></g></g><g opacity=".15" clip-path="url(#b)"><defs><path id="A" d="M105.29 6.313h27.376v27.376H105.29z"/></defs><clipPath id="C"><use xlink:href="#A" overflow="visible"/></clipPath><defs><filter id="B" filterUnits="userSpaceOnUse" x="105.29" y="6.313" width="27.376" height="27.376"><feFlood result="back" flood-color="#fff" flood-opacity="1"/><feBlend in="SourceGraphic" in2="back"/></filter></defs><mask maskUnits="userSpaceOnUse" x="105.29" y="6.313" width="27.376" height="27.376" id="F"><g enable-background="new" filter="url(#B)"><defs><path id="D" d="M102.888 3.563h32v33h-32z"/></defs><clipPath id="E" clip-path="url(#C)"><use xlink:href="#D" overflow="visible"/></clipPath><g clip-path="url(#E)"><image width="32" height="33" xlink:href="93F0D40D7CB397C6.jpg" transform="translate(102.888 3.563)" overflow="visible"/></g></g></mask><g clip-path="url(#C)" mask="url(#F)"><defs><path id="G" d="M105.29 6.313h27.376v27.376H105.29z"/></defs><clipPath id="H"><use xlink:href="#G" overflow="visible"/></clipPath><path d="M127.643 15.185a3.85 3.85 0 0 1-3.849-3.849c0-2.515-1.838-4.761-4.342-5a4.817 4.817 0 0 0-5.29 4.793v.207a3.849 3.849 0 0 1-3.849 3.849c-2.515 0-4.761 1.839-5 4.343a4.816 4.816 0 0 0 4.793 5.289h.207a3.849 3.849 0 0 1 3.849 3.849c0 2.516 1.839 4.762 4.343 5a4.816 4.816 0 0 0 5.289-4.793v-.207a3.85 3.85 0 0 1 3.849-3.849h.207a4.816 4.816 0 0 0 4.793-5.289c-.238-2.504-2.484-4.343-5-4.343" clip-path="url(#H)" fill="#fff"/></g></g><g opacity=".15" clip-path="url(#b)"><defs><path id="I" d="M44.24 529.07h27.376v27.376H44.24z"/></defs><clipPath id="K"><use xlink:href="#I" overflow="visible"/></clipPath><defs><filter id="J" filterUnits="userSpaceOnUse" x="44.24" y="529.07" width="27.376" height="27.376"><feFlood result="back" flood-color="#fff" flood-opacity="1"/><feBlend in="SourceGraphic" in2="back"/></filter></defs><mask maskUnits="userSpaceOnUse" x="44.24" y="529.07" width="27.376" height="27.376" id="N"><g enable-background="new" filter="url(#J)"><defs><path id="L" d="M41.837 526.32h32v33h-32z"/></defs><clipPath id="M" clip-path="url(#K)"><use xlink:href="#L" overflow="visible"/></clipPath><g clip-path="url(#M)"><image width="32" height="33" xlink:href="93F0D40D7CB397C7.jpg" transform="translate(41.837 526.32)" overflow="visible"/></g></g></mask><g clip-path="url(#K)" mask="url(#N)"><defs><path id="O" d="M44.24 529.07h27.376v27.376H44.24z"/></defs><clipPath id="P"><use xlink:href="#O" overflow="visible"/></clipPath><path d="M66.593 537.942a3.85 3.85 0 0 1-3.849-3.85c0-2.515-1.838-4.762-4.343-5a4.817 4.817 0 0 0-5.289 4.793v.207a3.85 3.85 0 0 1-3.849 3.85c-2.515 0-4.761 1.839-5 4.343a4.817 4.817 0 0 0 4.793 5.289h.207a3.849 3.849 0 0 1 3.849 3.849c0 2.516 1.839 4.762 4.343 5.001a4.818 4.818 0 0 0 5.289-4.793v-.208a3.85 3.85 0 0 1 3.849-3.849h.207a4.817 4.817 0 0 0 4.793-5.289c-.238-2.504-2.484-4.343-5-4.343" clip-path="url(#P)" fill="#fff"/></g></g><g opacity=".15" clip-path="url(#b)"><defs><path id="Q" d="M506.065 514.367h12.5v12.5h-12.5z"/></defs><clipPath id="R"><use xlink:href="#Q" overflow="visible"/></clipPath><path d="M516.271 518.418a1.756 1.756 0 0 1-1.757-1.757c0-1.148-.84-2.175-1.983-2.283a2.199 2.199 0 0 0-2.415 2.188v.095c0 .971-.787 1.757-1.758 1.757-1.149 0-2.174.84-2.283 1.983a2.2 2.2 0 0 0 2.189 2.415h.094c.971 0 1.758.787 1.758 1.758 0 1.148.839 2.174 1.983 2.283a2.2 2.2 0 0 0 2.415-2.189v-.094c0-.971.786-1.758 1.757-1.758h.095a2.2 2.2 0 0 0 2.188-2.415c-.109-1.143-1.135-1.983-2.283-1.983" clip-path="url(#R)" fill="#fff"/></g><g opacity=".15" clip-path="url(#b)"><defs><path id="S" d="M451.649 655.867h10.049v10.048h-10.049z"/></defs><clipPath id="T"><use xlink:href="#S" overflow="visible"/></clipPath><path d="M459.854 659.123c-.78 0-1.413-.632-1.413-1.412 0-.924-.675-1.748-1.594-1.836a1.767 1.767 0 0 0-1.941 1.76v.076c0 .78-.633 1.412-1.413 1.412-.923 0-1.748.675-1.836 1.595a1.768 1.768 0 0 0 1.76 1.941h.076c.78 0 1.413.632 1.413 1.412 0 .924.675 1.748 1.594 1.836a1.768 1.768 0 0 0 1.941-1.76v-.076c0-.78.633-1.412 1.413-1.412h.076c1.033 0 1.86-.888 1.759-1.941-.087-.92-.912-1.595-1.835-1.595" clip-path="url(#T)" fill="#fff"/></g><g opacity=".15" clip-path="url(#b)"><defs><path id="U" d="M714.976 650.843h10.048v10.048h-10.048z"/></defs><clipPath id="V"><use xlink:href="#U" overflow="visible"/></clipPath><path d="M723.181 654.099c-.78 0-1.413-.632-1.413-1.412 0-.924-.675-1.748-1.594-1.836a1.768 1.768 0 0 0-1.941 1.76v.076c0 .78-.633 1.412-1.413 1.412-.924 0-1.748.676-1.836 1.595a1.768 1.768 0 0 0 1.76 1.941h.076c.78 0 1.413.632 1.413 1.412 0 .924.675 1.748 1.594 1.836a1.768 1.768 0 0 0 1.941-1.76v-.076c0-.78.633-1.412 1.413-1.412h.076c1.033 0 1.86-.888 1.759-1.941-.087-.92-.912-1.595-1.835-1.595" clip-path="url(#V)" fill="#fff"/></g><g opacity=".15" clip-path="url(#b)"><defs><path id="W" d="M294.127 481.667h12.5v12.5h-12.5z"/></defs><clipPath id="X"><use xlink:href="#W" overflow="visible"/></clipPath><path d="M304.333 485.718c-.97 0-1.757-.787-1.757-1.758 0-1.148-.84-2.174-1.983-2.283a2.2 2.2 0 0 0-2.415 2.189v.094c0 .971-.787 1.758-1.758 1.758-1.148 0-2.174.84-2.283 1.983a2.2 2.2 0 0 0 2.189 2.415h.094c.971 0 1.758.786 1.758 1.757 0 1.148.839 2.175 1.983 2.283a2.2 2.2 0 0 0 2.415-2.188v-.095c0-.971.787-1.757 1.757-1.757h.095a2.2 2.2 0 0 0 2.188-2.415c-.109-1.143-1.135-1.983-2.283-1.983" clip-path="url(#X)" fill="#fff"/></g><g opacity=".15" clip-path="url(#b)"><defs><path id="Y" d="M379.5 460.294h5.5v5.5h-5.5z"/></defs><clipPath id="Z"><use xlink:href="#Y" overflow="visible"/></clipPath><path d="M383.991 462.076a.774.774 0 0 1-.773-.773c0-.505-.37-.956-.873-1.005a.967.967 0 0 0-1.062.963v.042a.774.774 0 0 1-.773.773c-.506 0-.957.369-1.005.872a.967.967 0 0 0 .963 1.062h.042c.426 0 .773.347.773.773 0 .506.369.957.872 1.005a.968.968 0 0 0 1.063-.963v-.042c0-.427.346-.773.773-.773h.042a.968.968 0 0 0 .963-1.062c-.048-.503-.5-.872-1.005-.872" clip-path="url(#Z)" fill="#fff"/></g><g opacity=".15" clip-path="url(#b)"><defs><path id="aa" d="M118.978 571.556h16.8v16.8h-16.8z"/></defs><clipPath id="ab"><use xlink:href="#aa" overflow="visible"/></clipPath><path d="M132.695 577a2.362 2.362 0 0 1-2.362-2.361c0-1.544-1.128-2.923-2.665-3.069a2.956 2.956 0 0 0-3.246 2.942v.127A2.361 2.361 0 0 1 122.06 577c-1.543 0-2.922 1.129-3.068 2.665a2.956 2.956 0 0 0 2.941 3.246h.127a2.361 2.361 0 0 1 2.362 2.361c0 1.544 1.128 2.922 2.665 3.068a2.956 2.956 0 0 0 3.246-2.941v-.127a2.36 2.36 0 0 1 2.362-2.361h.127a2.956 2.956 0 0 0 2.941-3.246c-.146-1.536-1.525-2.665-3.068-2.665" clip-path="url(#ab)" fill="#fff"/></g><path d="M47.083 447.931c-.888 0-1.607-.72-1.607-1.607 0-1.051-.769-1.989-1.815-2.089a2.012 2.012 0 0 0-2.209 2.003v.086c0 .888-.72 1.607-1.608 1.607-1.051 0-1.989.769-2.089 1.814a2.013 2.013 0 0 0 2.003 2.209h.086c.888 0 1.608.72 1.608 1.608 0 1.051.768 1.988 1.814 2.089 1.2.114 2.21-.825 2.21-2.003v-.086c0-.889.719-1.608 1.607-1.608h.086a2.012 2.012 0 0 0 2.003-2.209c-.1-1.046-1.038-1.814-2.089-1.814M847.068 88.868a2.207 2.207 0 0 1-2.207-2.207c0-1.442-1.055-2.73-2.49-2.867a2.762 2.762 0 0 0-3.033 2.748v.119a2.206 2.206 0 0 1-2.206 2.207c-1.442 0-2.73 1.054-2.867 2.49a2.762 2.762 0 0 0 2.748 3.033h.119c1.219 0 2.206.988 2.206 2.206 0 1.443 1.055 2.731 2.49 2.868a2.762 2.762 0 0 0 3.033-2.749v-.119c0-1.218.988-2.206 2.207-2.206h.118a2.762 2.762 0 0 0 2.749-3.033c-.136-1.436-1.424-2.49-2.867-2.49" clip-path="url(#b)" fill="#00eff0"/><g opacity=".25" clip-path="url(#b)"><defs><path id="ac" d="M199.988 521.15h11.435v11.435h-11.435z"/></defs><clipPath id="ad"><use xlink:href="#ac" overflow="visible"/></clipPath><path d="M209.325 524.855c-.888 0-1.607-.72-1.607-1.607 0-1.051-.769-1.989-1.815-2.089a2.012 2.012 0 0 0-2.209 2.002v.087c0 .888-.72 1.607-1.608 1.607-1.051 0-1.989.77-2.089 1.814a2.013 2.013 0 0 0 2.003 2.209h.086c.888 0 1.608.72 1.608 1.607 0 1.051.768 1.989 1.814 2.089 1.2.115 2.21-.825 2.21-2.002v-.087c0-.888.719-1.607 1.607-1.607h.086a2.012 2.012 0 0 0 2.003-2.209c-.1-1.044-1.038-1.814-2.089-1.814" clip-path="url(#ad)" fill="#00eff0"/></g><g opacity=".25" clip-path="url(#b)"><defs><path id="ae" d="M45.396 611.672h11.435v11.436H45.396z"/></defs><clipPath id="af"><use xlink:href="#ae" overflow="visible"/></clipPath><path d="M54.733 615.378c-.888 0-1.607-.72-1.607-1.607 0-1.051-.769-1.989-1.815-2.089a2.012 2.012 0 0 0-2.209 2.002v.087c0 .888-.72 1.607-1.608 1.607-1.051 0-1.989.769-2.089 1.814a2.013 2.013 0 0 0 2.003 2.209h.086c.888 0 1.608.72 1.608 1.607 0 1.051.768 1.989 1.814 2.089 1.2.114 2.21-.826 2.21-2.002v-.087c0-.888.719-1.607 1.607-1.607h.086a2.013 2.013 0 0 0 2.003-2.209c-.1-1.046-1.038-1.814-2.089-1.814" clip-path="url(#af)" fill="#00eff0"/></g><g opacity=".25" clip-path="url(#b)"><defs><path id="ag" d="M546.575 585.397h5.915v5.916h-5.915z"/></defs><clipPath id="ah"><use xlink:href="#ag" overflow="visible"/></clipPath><path d="M551.404 587.314a.832.832 0 0 1-.832-.832c0-.543-.397-1.028-.938-1.08a1.04 1.04 0 0 0-1.143 1.036v.044c0 .46-.372.832-.831.832-.544 0-1.029.397-1.081.938a1.042 1.042 0 0 0 1.036 1.143h.045c.459 0 .831.372.831.832 0 .543.397 1.028.939 1.08a1.04 1.04 0 0 0 1.142-1.035v-.045c0-.46.373-.832.832-.832h.045c.608 0 1.095-.522 1.036-1.143-.052-.54-.538-.938-1.081-.938" clip-path="url(#ah)" fill="#00eff0"/></g><g opacity=".25" clip-path="url(#b)"><defs><path id="ai" d="M1229.05 102.466h12.41v12.411h-12.41z"/></defs><clipPath id="aj"><use xlink:href="#ai" overflow="visible"/></clipPath><path d="M1239.187 106.488a1.744 1.744 0 0 1-1.744-1.745c0-1.14-.834-2.158-1.969-2.267a2.184 2.184 0 0 0-2.398 2.174v.093c0 .964-.782 1.745-1.745 1.745-1.14 0-2.158.834-2.267 1.969a2.184 2.184 0 0 0 2.173 2.398h.094c.963 0 1.745.781 1.745 1.745 0 1.14.834 2.159 1.968 2.267a2.184 2.184 0 0 0 2.399-2.173v-.094c0-.964.781-1.745 1.744-1.745h.095a2.184 2.184 0 0 0 2.173-2.398c-.109-1.135-1.128-1.969-2.268-1.969" clip-path="url(#aj)" fill="#00eff0"/></g><g opacity=".25" clip-path="url(#b)"><defs><path id="ak" d="M566.057 485.09h5.915v5.916h-5.915z"/></defs><clipPath id="al"><use xlink:href="#ak" overflow="visible"/></clipPath><path d="M570.887 487.008a.833.833 0 0 1-.832-.832c0-.544-.397-1.029-.938-1.08a1.04 1.04 0 0 0-1.143 1.035v.045a.832.832 0 0 1-.831.832h-.001c-.543 0-1.028.396-1.08.937a1.043 1.043 0 0 0 1.036 1.145h.045a.83.83 0 0 1 .831.831c0 .544.397 1.029.938 1.081a1.041 1.041 0 0 0 1.143-1.036v-.045c0-.459.373-.831.832-.831h.045c.608 0 1.095-.522 1.036-1.145-.052-.541-.538-.937-1.081-.937" clip-path="url(#al)" fill="#00eff0"/></g><g opacity=".25" clip-path="url(#b)"><defs><path id="am" d="M591.187 361.668h5.915v5.916h-5.915z"/></defs><clipPath id="an"><use xlink:href="#am" overflow="visible"/></clipPath><path d="M596.017 363.585a.832.832 0 0 1-.832-.831c0-.544-.397-1.029-.938-1.08a1.04 1.04 0 0 0-1.143 1.035v.045a.83.83 0 0 1-.831.831c-.544 0-1.029.397-1.081.938a1.042 1.042 0 0 0 1.036 1.144h.045a.83.83 0 0 1 .831.831c0 .544.398 1.029.939 1.081a1.041 1.041 0 0 0 1.142-1.036v-.045c0-.459.373-.831.832-.831h.045c.608 0 1.095-.522 1.036-1.144-.053-.541-.537-.938-1.081-.938" clip-path="url(#an)" fill="#00eff0"/></g><path d="M813.098 609.655a2.224 2.224 0 0 1-2.224-2.224c0-1.454-1.062-2.752-2.51-2.89a2.785 2.785 0 0 0-3.057 2.77v.12a2.224 2.224 0 0 1-2.224 2.224c-1.453 0-2.751 1.062-2.89 2.51a2.785 2.785 0 0 0 2.771 3.056h.119c1.229 0 2.224.997 2.224 2.224 0 1.454 1.062 2.752 2.51 2.89a2.784 2.784 0 0 0 3.057-2.77v-.12c0-1.227.995-2.224 2.224-2.224h.119a2.784 2.784 0 0 0 2.771-3.056c-.139-1.447-1.437-2.51-2.89-2.51M546.63 663.133a2.224 2.224 0 0 1-2.224-2.225c0-1.453-1.063-2.751-2.509-2.889a2.784 2.784 0 0 0-3.057 2.77v.119a2.224 2.224 0 0 1-2.224 2.225c-1.453 0-2.751 1.062-2.889 2.509a2.784 2.784 0 0 0 2.77 3.057h.119c1.229 0 2.224.995 2.224 2.224 0 1.453 1.063 2.752 2.51 2.89a2.784 2.784 0 0 0 3.056-2.77v-.12c0-1.229.995-2.224 2.224-2.224h.12a2.783 2.783 0 0 0 2.769-3.057c-.138-1.448-1.436-2.509-2.889-2.509m35.301-269.386a2.224 2.224 0 0 1-2.224-2.225c0-1.453-1.063-2.751-2.509-2.889a2.784 2.784 0 0 0-3.057 2.77v.119a2.225 2.225 0 0 1-2.224 2.225c-1.453 0-2.751 1.062-2.889 2.509a2.784 2.784 0 0 0 2.77 3.057h.119c1.228 0 2.224.996 2.224 2.224 0 1.453 1.063 2.752 2.51 2.89a2.784 2.784 0 0 0 3.056-2.77v-.12c0-1.228.995-2.224 2.224-2.224h.119a2.783 2.783 0 0 0 2.77-3.057c-.138-1.446-1.436-2.509-2.889-2.509" clip-path="url(#b)" fill="#fff"/><path d="M482.522 463.011a2.224 2.224 0 0 1-2.224-2.224c0-1.454-1.062-2.752-2.509-2.89a2.784 2.784 0 0 0-3.057 2.77v.12a2.224 2.224 0 0 1-2.223 2.224c-1.454 0-2.752 1.062-2.89 2.51a2.784 2.784 0 0 0 2.77 3.056h.12c1.228 0 2.223.996 2.223 2.224v.001c0 1.453 1.063 2.751 2.51 2.889a2.784 2.784 0 0 0 3.056-2.77v-.12c0-1.228.996-2.224 2.224-2.224h.12a2.784 2.784 0 0 0 2.77-3.056c-.139-1.449-1.435-2.51-2.89-2.51" clip-path="url(#b)" fill="#ff519e"/><path d="M256.372 45.605a2.224 2.224 0 0 1-2.224-2.224c0-1.453-1.063-2.752-2.509-2.889a2.784 2.784 0 0 0-3.057 2.769v.12a2.224 2.224 0 0 1-2.223 2.224c-1.454 0-2.752 1.062-2.89 2.509a2.784 2.784 0 0 0 2.77 3.056h.12c1.228 0 2.223.996 2.223 2.225 0 1.453 1.063 2.751 2.51 2.889a2.784 2.784 0 0 0 3.056-2.77v-.119c0-1.229.996-2.225 2.224-2.225h.12a2.784 2.784 0 0 0 2.77-3.056c-.139-1.447-1.436-2.509-2.89-2.509" clip-path="url(#b)" fill="#fff"/><g opacity=".25" clip-path="url(#b)"><defs><path id="ao" d="M176.975 660.891h15.818v15.818h-15.818z"/></defs><clipPath id="ap"><use xlink:href="#ao" overflow="visible"/></clipPath><path d="M189.891 666.018a2.224 2.224 0 0 1-2.224-2.224c0-1.454-1.063-2.752-2.509-2.89a2.785 2.785 0 0 0-3.057 2.77v.12a2.224 2.224 0 0 1-2.224 2.224c-1.453 0-2.751 1.062-2.889 2.509a2.784 2.784 0 0 0 2.77 3.057h.119c1.229 0 2.224.997 2.224 2.224 0 1.454 1.063 2.752 2.51 2.89a2.784 2.784 0 0 0 3.056-2.77v-.12c0-1.227.995-2.224 2.224-2.224h.12a2.783 2.783 0 0 0 2.769-3.057c-.138-1.447-1.436-2.509-2.889-2.509" clip-path="url(#ap)" fill="#ff519e"/></g><g opacity=".25" clip-path="url(#b)"><defs><path id="aq" d="M39.927 314.76h15.818v15.818H39.927z"/></defs><clipPath id="ar"><use xlink:href="#aq" overflow="visible"/></clipPath><path d="M52.843 319.886a2.224 2.224 0 0 1-2.224-2.224c0-1.454-1.063-2.752-2.509-2.889a2.783 2.783 0 0 0-3.057 2.769v.12a2.224 2.224 0 0 1-2.224 2.224c-1.453 0-2.751 1.062-2.889 2.509a2.783 2.783 0 0 0 2.77 3.056h.119c1.228 0 2.224.996 2.224 2.225 0 1.453 1.063 2.751 2.51 2.889a2.784 2.784 0 0 0 3.056-2.77v-.119c0-1.229.995-2.225 2.224-2.225h.119a2.783 2.783 0 0 0 2.77-3.056c-.138-1.447-1.436-2.509-2.889-2.509" clip-path="url(#ar)" fill="#ff519e"/></g><g opacity=".25" clip-path="url(#b)"><defs><path id="as" d="M279.676 238.506h15.818v15.818h-15.818z"/></defs><clipPath id="at"><use xlink:href="#as" overflow="visible"/></clipPath><path d="M292.592 243.632a2.224 2.224 0 0 1-2.224-2.224c0-1.453-1.063-2.751-2.509-2.889a2.784 2.784 0 0 0-3.057 2.77v.119a2.224 2.224 0 0 1-2.224 2.224c-1.453 0-2.751 1.063-2.889 2.51a2.784 2.784 0 0 0 2.77 3.056h.119c1.228 0 2.224.996 2.224 2.224 0 1.453 1.063 2.751 2.51 2.889a2.783 2.783 0 0 0 3.056-2.77v-.119c0-1.228.995-2.224 2.224-2.224h.12a2.783 2.783 0 0 0 2.769-3.056c-.138-1.447-1.436-2.51-2.889-2.51" clip-path="url(#at)" fill="#00eff0"/></g><g opacity=".25" clip-path="url(#b)"><defs><path id="au" d="M618.807 545.116h12.631v12.631h-12.631z"/></defs><clipPath id="av"><use xlink:href="#au" overflow="visible"/></clipPath><path d="M629.121 549.209a1.776 1.776 0 0 1-1.776-1.775c0-1.161-.849-2.197-2.004-2.308a2.223 2.223 0 0 0-2.44 2.212v.096c0 .98-.795 1.775-1.776 1.775-1.161 0-2.197.849-2.307 2.004a2.222 2.222 0 0 0 2.212 2.44h.095c.981 0 1.776.795 1.776 1.776 0 1.16.848 2.196 2.004 2.307a2.222 2.222 0 0 0 2.44-2.212v-.095c0-.981.795-1.776 1.776-1.776h.095c1.3 0 2.339-1.115 2.212-2.44-.111-1.155-1.146-2.004-2.307-2.004" clip-path="url(#av)" fill="#ff519e"/></g><g opacity=".25" clip-path="url(#b)"><defs><path id="aw" d="M852.547 667.509h12.632v12.631h-12.632z"/></defs><clipPath id="ax"><use xlink:href="#aw" overflow="visible"/></clipPath><path d="M862.861 671.603a1.776 1.776 0 0 1-1.776-1.776c0-1.161-.849-2.196-2.004-2.307a2.222 2.222 0 0 0-2.44 2.212v.095c0 .981-.795 1.776-1.775 1.776-1.161 0-2.197.849-2.308 2.004a2.223 2.223 0 0 0 2.212 2.44h.096c.98 0 1.775.795 1.775 1.775 0 1.161.849 2.197 2.004 2.308a2.223 2.223 0 0 0 2.44-2.212v-.096c0-.98.795-1.775 1.776-1.775h.095c1.3 0 2.339-1.115 2.212-2.44-.11-1.156-1.147-2.004-2.307-2.004" clip-path="url(#ax)" fill="#ff519e"/></g><g opacity=".25" clip-path="url(#b)"><defs><path id="ay" d="M840.47 536.834h12.631v12.631H840.47z"/></defs><clipPath id="az"><use xlink:href="#ay" overflow="visible"/></clipPath><path d="M850.784 540.927a1.776 1.776 0 0 1-1.776-1.775c0-1.161-.849-2.197-2.004-2.308a2.223 2.223 0 0 0-2.44 2.212v.096c0 .98-.795 1.775-1.775 1.775-1.161 0-2.197.849-2.308 2.004a2.223 2.223 0 0 0 2.212 2.44h.096c.98 0 1.775.795 1.775 1.776 0 1.16.849 2.196 2.004 2.307a2.222 2.222 0 0 0 2.44-2.212v-.095c0-.981.795-1.776 1.776-1.776h.095c1.3 0 2.339-1.115 2.212-2.44-.111-1.156-1.147-2.004-2.307-2.004" clip-path="url(#az)" fill="#ff519e"/></g><g opacity=".25" clip-path="url(#b)"><defs><path id="aA" d="M1018.46 331.219h12.63v12.631h-12.63z"/></defs><clipPath id="aB"><use xlink:href="#aA" overflow="visible"/></clipPath><path d="M1028.774 335.312c-.98 0-1.775-.795-1.775-1.776 0-1.161-.849-2.197-2.004-2.307a2.223 2.223 0 0 0-2.44 2.212v.095c0 .981-.795 1.776-1.776 1.776-1.16 0-2.196.849-2.307 2.004a2.222 2.222 0 0 0 2.211 2.44h.096c.981 0 1.776.795 1.776 1.776 0 1.161.849 2.197 2.004 2.307a2.222 2.222 0 0 0 2.44-2.212v-.095c0-.981.795-1.776 1.775-1.776h.096a2.223 2.223 0 0 0 2.212-2.44c-.11-1.155-1.147-2.004-2.308-2.004" clip-path="url(#aB)" fill="#ff519e"/></g><g opacity=".25" clip-path="url(#b)"><defs><path id="aC" d="M970.721 173.978h12.633v12.631h-12.633z"/></defs><clipPath id="aD"><use xlink:href="#aC" overflow="visible"/></clipPath><path d="M981.035 178.072c-.98 0-1.776-.795-1.776-1.776 0-1.161-.849-2.197-2.004-2.307a2.223 2.223 0 0 0-2.44 2.211v.096c0 .981-.795 1.776-1.775 1.776-1.16 0-2.197.849-2.308 2.004a2.223 2.223 0 0 0 2.212 2.44h.096c.98 0 1.775.795 1.775 1.776 0 1.16.849 2.197 2.004 2.307a2.222 2.222 0 0 0 2.44-2.212v-.095c0-.981.796-1.776 1.776-1.776h.096a2.222 2.222 0 0 0 2.211-2.44c-.11-1.155-1.147-2.004-2.307-2.004" clip-path="url(#aD)" fill="#ff519e"/></g><g opacity=".25" clip-path="url(#b)"><defs><path id="aE" d="M1011.88 242.722h12.63v12.631h-12.63z"/></defs><clipPath id="aF"><use xlink:href="#aE" overflow="visible"/></clipPath><path d="M1022.19 246.815a1.776 1.776 0 0 1-1.776-1.775c0-1.161-.849-2.198-2.004-2.308a2.223 2.223 0 0 0-2.44 2.212v.096c0 .98-.795 1.775-1.775 1.775-1.161 0-2.197.849-2.308 2.004a2.222 2.222 0 0 0 2.212 2.44h.096c.98 0 1.775.796 1.775 1.776 0 1.161.849 2.197 2.004 2.307a2.222 2.222 0 0 0 2.44-2.211v-.096c0-.98.795-1.776 1.776-1.776h.095c1.3 0 2.339-1.114 2.212-2.44-.11-1.155-1.146-2.004-2.307-2.004" clip-path="url(#aF)" fill="#ff519e"/></g><g opacity=".25" clip-path="url(#b)"><defs><path id="aG" d="M1408.68 199.02h12.631v12.631h-12.631z"/></defs><clipPath id="aH"><use xlink:href="#aG" overflow="visible"/></clipPath><path d="M1418.996 203.114a1.776 1.776 0 0 1-1.776-1.776c0-1.161-.849-2.197-2.004-2.307a2.223 2.223 0 0 0-2.44 2.212v.095c0 .981-.795 1.776-1.775 1.776-1.16 0-2.197.849-2.308 2.004a2.223 2.223 0 0 0 2.212 2.44h.095c.98 0 1.775.795 1.775 1.776 0 1.161.849 2.197 2.004 2.307a2.221 2.221 0 0 0 2.44-2.212v-.095c0-.981.795-1.776 1.776-1.776h.096a2.222 2.222 0 0 0 2.211-2.44c-.109-1.155-1.146-2.004-2.306-2.004" clip-path="url(#aH)" fill="#ff519e"/></g><g opacity=".25" clip-path="url(#b)"><defs><path id="aI" d="M527.398 416.031h12.631v12.631h-12.631z"/></defs><clipPath id="aJ"><use xlink:href="#aI" overflow="visible"/></clipPath><path d="M537.712 420.124a1.776 1.776 0 0 1-1.776-1.775c0-1.16-.849-2.197-2.004-2.308a2.223 2.223 0 0 0-2.44 2.212v.096c0 .98-.795 1.775-1.776 1.775-1.161 0-2.197.849-2.307 2.004a2.221 2.221 0 0 0 2.212 2.44h.095c.981 0 1.776.796 1.776 1.776 0 1.16.848 2.197 2.004 2.307a2.222 2.222 0 0 0 2.44-2.211v-.096c0-.98.795-1.776 1.776-1.776h.095c1.3 0 2.339-1.114 2.212-2.44-.11-1.155-1.146-2.004-2.307-2.004" clip-path="url(#aJ)" fill="#ff519e"/></g><g opacity=".25" clip-path="url(#b)"><defs><path id="aK" d="M362 679.564h5.435V685H362z"/></defs><clipPath id="aL"><use xlink:href="#aK" overflow="visible"/></clipPath><path d="M367.435 682.282a2.717 2.717 0 1 1-5.435.001 2.717 2.717 0 0 1 5.435-.001" clip-path="url(#aL)" fill="#ff519e"/></g><g opacity=".25" clip-path="url(#b)"><defs><path id="aM" d="M139.616 496.323h5.435v5.436h-5.435z"/></defs><clipPath id="aN"><use xlink:href="#aM" overflow="visible"/></clipPath><path d="M145.051 499.041a2.717 2.717 0 1 1-5.435.001 2.717 2.717 0 0 1 5.435-.001" clip-path="url(#aN)" fill="#ff519e"/></g><g opacity=".25" clip-path="url(#b)"><defs><path id="aO" d="M130.805 253.12h5.436v5.435h-5.436z"/></defs><clipPath id="aP"><use xlink:href="#aO" overflow="visible"/></clipPath><path d="M136.241 255.837a2.718 2.718 0 1 1-5.436 0 2.718 2.718 0 0 1 5.436 0" clip-path="url(#aP)" fill="#ff519e"/></g><g opacity=".25" clip-path="url(#b)"><defs><path id="aQ" d="M40.747 22.898h5.435v5.435h-5.435z"/></defs><clipPath id="aR"><use xlink:href="#aQ" overflow="visible"/></clipPath><path d="M46.182 25.616a2.718 2.718 0 1 1-5.436 0 2.718 2.718 0 0 1 5.436 0" clip-path="url(#aR)" fill="#ff519e"/></g><g opacity=".25" clip-path="url(#b)"><defs><path id="aS" d="M53.847 542.282h5.435v5.436h-5.435z"/></defs><clipPath id="aT"><use xlink:href="#aS" overflow="visible"/></clipPath><path d="M59.282 545a2.717 2.717 0 1 1-5.435.001 2.717 2.717 0 0 1 5.435-.001" clip-path="url(#aT)" fill="#00eff0"/></g><g opacity=".25" clip-path="url(#b)"><defs><path id="aU" d="M190.075 586.982h5.436v5.435h-5.436z"/></defs><clipPath id="aV"><use xlink:href="#aU" overflow="visible"/></clipPath><path d="M195.511 589.7a2.717 2.717 0 1 1-5.435 0 2.717 2.717 0 0 1 5.435 0" clip-path="url(#aV)" fill="#00eff0"/></g><g opacity=".25" clip-path="url(#b)"><defs><path id="aW" d="M607.199 648.125h5.436v5.436h-5.436z"/></defs><clipPath id="aX"><use xlink:href="#aW" overflow="visible"/></clipPath><path d="M612.635 650.843a2.718 2.718 0 1 1-5.436 0 2.718 2.718 0 0 1 5.436 0" clip-path="url(#aX)" fill="#00eff0"/></g><g opacity=".25" clip-path="url(#b)"><defs><path id="aY" d="M879.844 525.229h5.436v5.436h-5.436z"/></defs><clipPath id="aZ"><use xlink:href="#aY" overflow="visible"/></clipPath><path d="M885.278 527.946a2.717 2.717 0 1 1-5.435.001 2.717 2.717 0 0 1 5.435-.001" clip-path="url(#aZ)" fill="#00eff0"/></g><g opacity=".25" clip-path="url(#b)"><defs><path id="ba" d="M667.875 579.955h5.436v5.436h-5.436z"/></defs><clipPath id="bb"><use xlink:href="#ba" overflow="visible"/></clipPath><path d="M673.311 582.673a2.718 2.718 0 1 1-5.436 0 2.718 2.718 0 0 1 5.436 0" clip-path="url(#bb)" fill="#00eff0"/></g><g opacity=".15" clip-path="url(#b)"><defs><path id="bc" d="M824.182 180.294h11.763v11.758h-11.763z"/></defs><clipPath id="bd"><use xlink:href="#bc" overflow="visible"/></clipPath><path d="M829.715 181.657a1.757 1.757 0 0 1-2.33.864c-1.044-.479-2.326-.144-2.902.85a2.199 2.199 0 0 0 .981 3.108l.086.039a1.757 1.757 0 0 1 .864 2.33c-.479 1.044-.144 2.327.85 2.903a2.2 2.2 0 0 0 3.108-.982l.039-.086a1.756 1.756 0 0 1 2.329-.864c1.045.48 2.327.144 2.903-.85a2.198 2.198 0 0 0-.981-3.107l-.086-.04a1.756 1.756 0 0 1-.864-2.33l.04-.086a2.2 2.2 0 0 0-1.282-2.997c-1.084-.377-2.277.204-2.755 1.248" clip-path="url(#bd)" fill="#fff"/></g><g opacity=".15" clip-path="url(#b)"><defs><path id="be" d="M971.156 99.721h11.762v11.758h-11.762z"/></defs><clipPath id="bf"><use xlink:href="#be" overflow="visible"/></clipPath><path d="M976.689 101.084a1.758 1.758 0 0 1-2.331.864c-1.044-.479-2.326-.144-2.902.85a2.2 2.2 0 0 0 .982 3.108l.085.039a1.756 1.756 0 0 1 .864 2.33c-.479 1.044-.144 2.327.85 2.903a2.199 2.199 0 0 0 3.108-.982l.039-.086a1.758 1.758 0 0 1 2.33-.863c1.044.479 2.328.143 2.902-.85a2.199 2.199 0 0 0-.981-3.108l-.086-.039a1.757 1.757 0 0 1-.863-2.331l.039-.086a2.2 2.2 0 0 0-1.282-2.997c-1.084-.377-2.275.205-2.754 1.248" clip-path="url(#bf)" fill="#fff"/></g><g opacity=".15" clip-path="url(#b)"><defs><path id="bg" d="M919.722 449.456h11.763v11.758h-11.763z"/></defs><clipPath id="bh"><use xlink:href="#bg" overflow="visible"/></clipPath><path d="M925.255 450.819a1.757 1.757 0 0 1-2.33.864c-1.044-.479-2.326-.145-2.902.85a2.2 2.2 0 0 0 .981 3.108l.086.039a1.757 1.757 0 0 1 .864 2.33c-.479 1.044-.145 2.326.85 2.902a2.2 2.2 0 0 0 3.108-.981l.039-.086a1.757 1.757 0 0 1 2.33-.864c1.044.479 2.326.145 2.902-.851a2.197 2.197 0 0 0-.981-3.106l-.086-.04a1.756 1.756 0 0 1-.864-2.33l.04-.086a2.2 2.2 0 0 0-1.282-2.997c-1.085-.378-2.277.204-2.755 1.248" clip-path="url(#bh)" fill="#fff"/></g><g opacity=".15" clip-path="url(#b)"><defs><path id="bi" d="M1375.28 140.343h9.46v9.452h-9.46z"/></defs><clipPath id="bj"><use xlink:href="#bi" overflow="visible"/></clipPath><path d="M1379.73 141.439a1.412 1.412 0 0 1-1.873.694c-.84-.385-1.87-.115-2.334.683a1.77 1.77 0 0 0 .789 2.499l.068.032a1.411 1.411 0 0 1 .695 1.873c-.385.839-.115 1.87.684 2.333.916.532 2.067.15 2.498-.789l.032-.069a1.412 1.412 0 0 1 1.873-.694c.839.385 1.87.115 2.333-.684a1.768 1.768 0 0 0-.789-2.498l-.069-.032a1.412 1.412 0 0 1-.694-1.873l.032-.069a1.768 1.768 0 0 0-1.031-2.409c-.871-.303-1.829.165-2.214 1.003" clip-path="url(#bj)" fill="#fff"/></g><g opacity=".15" clip-path="url(#b)"><defs><path id="bk" d="M916.819 177.725h9.455v9.452h-9.455z"/></defs><clipPath id="bl"><use xlink:href="#bk" overflow="visible"/></clipPath><path d="M921.267 178.821a1.412 1.412 0 0 1-1.873.694c-.839-.385-1.87-.115-2.333.683a1.769 1.769 0 0 0 .789 2.499l.068.032a1.411 1.411 0 0 1 .695 1.873c-.386.839-.117 1.87.683 2.333a1.77 1.77 0 0 0 2.499-.789l.031-.069a1.412 1.412 0 0 1 1.873-.694c.838.384 1.87.115 2.333-.684a1.768 1.768 0 0 0-.789-2.498l-.068-.032a1.412 1.412 0 0 1-.695-1.873l.032-.069a1.768 1.768 0 0 0-1.03-2.409c-.873-.304-1.831.164-2.215 1.003" clip-path="url(#bl)" fill="#fff"/></g><g opacity=".15" clip-path="url(#b)"><defs><path id="bm" d="M1235.55 32.538h9.46v9.452h-9.46z"/></defs><clipPath id="bn"><use xlink:href="#bm" overflow="visible"/></clipPath><path d="M1239.998 33.634a1.412 1.412 0 0 1-1.873.695c-.839-.385-1.87-.116-2.333.683a1.768 1.768 0 0 0 .789 2.498l.069.032a1.412 1.412 0 0 1 .694 1.873c-.385.839-.116 1.87.683 2.333a1.768 1.768 0 0 0 2.499-.789l.031-.069a1.413 1.413 0 0 1 1.874-.694c.838.385 1.869.115 2.333-.684a1.768 1.768 0 0 0-.789-2.498l-.069-.031a1.412 1.412 0 0 1-.694-1.874l.031-.069a1.768 1.768 0 0 0-1.03-2.409c-.872-.304-1.829.164-2.215 1.003" clip-path="url(#bn)" fill="#fff"/></g><g opacity=".25" clip-path="url(#b)"><defs><path id="bo" d="M944.976 298.428h5.566v5.564h-5.566z"/></defs><clipPath id="bp"><use xlink:href="#bo" overflow="visible"/></clipPath><path d="M947.594 299.074a.834.834 0 0 1-1.104.409c-.493-.227-1.1-.069-1.373.402a1.04 1.04 0 0 0 .466 1.47l.04.019a.83.83 0 0 1 .408 1.103c-.226.494-.067 1.101.403 1.373a1.04 1.04 0 0 0 1.471-.464l.019-.041a.832.832 0 0 1 1.103-.409c.494.227 1.101.068 1.373-.402a1.04 1.04 0 0 0-.464-1.471l-.041-.018a.832.832 0 0 1-.409-1.103l.019-.04a1.042 1.042 0 0 0-.606-1.419c-.514-.179-1.078.097-1.305.591" clip-path="url(#bp)" fill="#00eff0"/></g><path d="M1066.847 22.332a2.224 2.224 0 0 1-2.949 1.093c-1.321-.606-2.944-.182-3.672 1.075a2.784 2.784 0 0 0 1.242 3.934l.107.049a2.224 2.224 0 0 1 1.094 2.949c-.605 1.321-.182 2.944 1.075 3.673a2.784 2.784 0 0 0 3.934-1.242l.05-.109a2.224 2.224 0 0 1 2.949-1.093c1.319.606 2.942.182 3.673-1.076a2.784 2.784 0 0 0-1.242-3.933l-.109-.049a2.225 2.225 0 0 1-1.093-2.949l.05-.109a2.783 2.783 0 0 0-1.622-3.792c-1.374-.48-2.881.258-3.487 1.579" clip-path="url(#b)" fill="#00eff0"/><path d="M897.438 260.117a2.225 2.225 0 0 1-2.949 1.093c-1.321-.606-2.943-.182-3.673 1.075a2.785 2.785 0 0 0 1.242 3.934l.108.049a2.224 2.224 0 0 1 1.094 2.949c-.606 1.321-.182 2.944 1.075 3.673a2.785 2.785 0 0 0 3.934-1.242l.05-.109a2.222 2.222 0 0 1 2.948-1.093c1.321.606 2.943.182 3.673-1.076a2.783 2.783 0 0 0-1.242-3.933l-.108-.049a2.226 2.226 0 0 1-1.094-2.949l.051-.109a2.783 2.783 0 0 0-1.622-3.792c-1.373-.479-2.88.258-3.487 1.579M1391.74 33.081a2.225 2.225 0 0 1-2.949 1.093c-1.322-.606-2.945-.182-3.673 1.075a2.785 2.785 0 0 0 1.242 3.934l.108.049a2.226 2.226 0 0 1 1.094 2.949c-.606 1.321-.183 2.944 1.074 3.673a2.785 2.785 0 0 0 3.934-1.242l.05-.109a2.224 2.224 0 0 1 2.949-1.093c1.321.606 2.944.182 3.673-1.076a2.784 2.784 0 0 0-1.242-3.933l-.109-.049a2.226 2.226 0 0 1-1.093-2.949l.05-.109a2.782 2.782 0 0 0-1.622-3.792c-1.372-.48-2.88.258-3.486 1.579" clip-path="url(#b)" fill="#fff"/><path d="M1343.376 196.107a2.223 2.223 0 0 1-2.279-2.166c-.037-1.453-1.133-2.724-2.583-2.825a2.784 2.784 0 0 0-2.984 2.847l.003.12a2.223 2.223 0 0 1-2.166 2.28c-1.453.037-2.724 1.133-2.824 2.582a2.783 2.783 0 0 0 2.847 2.985l.12-.003a2.223 2.223 0 0 1 2.279 2.166c.037 1.453 1.133 2.723 2.583 2.825a2.783 2.783 0 0 0 2.983-2.848l-.002-.119a2.223 2.223 0 0 1 2.166-2.28l.12-.003a2.783 2.783 0 0 0 2.69-3.126c-.175-1.442-1.5-2.472-2.953-2.435" clip-path="url(#b)" fill="#00eff0"/><path d="M68.587 77.516a2.224 2.224 0 0 1-2.28-2.167c-.037-1.452-1.133-2.723-2.583-2.824a2.784 2.784 0 0 0-2.984 2.847l.003.12a2.223 2.223 0 0 1-2.166 2.28c-1.453.037-2.723 1.133-2.824 2.582a2.783 2.783 0 0 0 2.847 2.985l.119-.003a2.223 2.223 0 0 1 2.28 2.166c.037 1.453 1.133 2.723 2.583 2.825a2.784 2.784 0 0 0 2.984-2.848l-.003-.119a2.224 2.224 0 0 1 2.166-2.28l.12-.003a2.785 2.785 0 0 0 2.691-3.126c-.175-1.443-1.5-2.472-2.953-2.435m18.5 187.292a2.224 2.224 0 0 1-2.28-2.167c-.037-1.452-1.133-2.723-2.583-2.824a2.784 2.784 0 0 0-2.984 2.847l.003.12a2.223 2.223 0 0 1-2.166 2.28c-1.453.037-2.723 1.133-2.824 2.582a2.783 2.783 0 0 0 2.847 2.985l.119-.003a2.224 2.224 0 0 1 2.28 2.166c.037 1.453 1.132 2.723 2.583 2.825a2.784 2.784 0 0 0 2.984-2.848l-.003-.119a2.223 2.223 0 0 1 2.166-2.28l.12-.003a2.785 2.785 0 0 0 2.691-3.126c-.176-1.443-1.5-2.472-2.953-2.435m39.941 357.812a2.224 2.224 0 0 1-2.28-2.167c-.037-1.453-1.133-2.723-2.582-2.824a2.785 2.785 0 0 0-2.985 2.848l.003.119a2.223 2.223 0 0 1-2.166 2.28c-1.453.037-2.723 1.132-2.824 2.582a2.783 2.783 0 0 0 2.847 2.984l.119-.003a2.223 2.223 0 0 1 2.28 2.166c.038 1.453 1.133 2.724 2.583 2.824a2.783 2.783 0 0 0 2.984-2.847l-.003-.119a2.224 2.224 0 0 1 2.167-2.28l.119-.003a2.784 2.784 0 0 0 2.691-3.126c-.175-1.443-1.5-2.472-2.953-2.434" clip-path="url(#b)" fill="#ff519e"/><g opacity=".25" clip-path="url(#b)"><defs><path id="bq" d="M1308.17 127.164h11.891v11.881h-11.891z"/></defs><clipPath id="br"><use xlink:href="#bq" overflow="visible"/></clipPath><path d="M1313.766 128.542a1.775 1.775 0 0 1-2.354.873c-1.056-.484-2.352-.145-2.934.858a2.223 2.223 0 0 0 .992 3.141l.086.04a1.775 1.775 0 0 1 .873 2.355c-.483 1.055-.145 2.351.859 2.933a2.224 2.224 0 0 0 3.141-.992l.039-.087a1.776 1.776 0 0 1 2.355-.873c1.055.484 2.351.145 2.933-.859a2.222 2.222 0 0 0-.992-3.14l-.087-.04a1.776 1.776 0 0 1-.873-2.355l.04-.087a2.222 2.222 0 0 0-1.295-3.028c-1.096-.383-2.299.205-2.783 1.261" clip-path="url(#br)" fill="#ff519e"/></g><g opacity=".25" clip-path="url(#b)"><defs><path id="bs" d="M1079.45 223.438h5.439v5.436h-5.439z"/></defs><clipPath id="bt"><use xlink:href="#bs" overflow="visible"/></clipPath><path d="M1083.306 223.686a2.718 2.718 0 1 1-2.269 4.94 2.718 2.718 0 0 1 2.269-4.94" clip-path="url(#bt)" fill="#00eff0"/></g><g opacity=".25" clip-path="url(#b)"><defs><path id="bu" d="M244.508 604.864h5.436v5.437h-5.436z"/></defs><clipPath id="bv"><use xlink:href="#bu" overflow="visible"/></clipPath><path d="M248.36 605.112a2.718 2.718 0 1 1-2.268 4.94 2.718 2.718 0 0 1 2.268-4.94" clip-path="url(#bv)" fill="#00eff0"/></g><g opacity=".25" clip-path="url(#b)"><defs><path id="bw" d="M766.405 210.547h5.436v5.436h-5.436z"/></defs><clipPath id="bx"><use xlink:href="#bw" overflow="visible"/></clipPath><path d="M770.257 210.795a2.718 2.718 0 1 1-2.268 4.94 2.718 2.718 0 0 1 2.268-4.94" clip-path="url(#bx)" fill="#00eff0"/></g><path d="M82.153 377.833a2.718 2.718 0 1 1-5.436 0 2.718 2.718 0 0 1 5.436 0m16.504 285.775a2.718 2.718 0 1 1-5.436 0 2.718 2.718 0 0 1 5.436 0" clip-path="url(#b)" fill="#fff"/><g opacity=".15" clip-path="url(#b)"><defs><path id="by" d="M19.46 132.797h12.5v12.5h-12.5z"/></defs><clipPath id="bz"><use xlink:href="#by" overflow="visible"/></clipPath><path d="M21.754 136.848c.971 0 1.757-.787 1.757-1.758 0-1.147.84-2.174 1.983-2.283a2.2 2.2 0 0 1 2.415 2.189v.094c0 .971.787 1.758 1.758 1.758 1.149 0 2.174.839 2.283 1.983a2.2 2.2 0 0 1-2.189 2.415h-.094c-.971 0-1.758.787-1.758 1.757 0 1.149-.839 2.175-1.983 2.283a2.2 2.2 0 0 1-2.415-2.188v-.095c0-.97-.786-1.757-1.757-1.757h-.095a2.2 2.2 0 0 1-2.188-2.415c.109-1.144 1.135-1.983 2.283-1.983" clip-path="url(#bz)" fill="#fff"/></g><g opacity=".15" clip-path="url(#b)"><defs><path id="bA" d="M330.679 207.233h10.049v10.049h-10.049z"/></defs><clipPath id="bB"><use xlink:href="#bA" overflow="visible"/></clipPath><path d="M332.523 210.49c.78 0 1.413-.632 1.413-1.413 0-.923.675-1.748 1.594-1.835a1.768 1.768 0 0 1 1.941 1.759v.076c0 .781.633 1.413 1.413 1.413.923 0 1.748.675 1.835 1.594a1.768 1.768 0 0 1-1.759 1.942h-.076c-.78 0-1.413.632-1.413 1.412 0 .924-.675 1.748-1.594 1.836a1.768 1.768 0 0 1-1.941-1.76v-.076c0-.78-.633-1.412-1.413-1.412h-.076a1.768 1.768 0 0 1-1.759-1.942c.087-.919.912-1.594 1.835-1.594" clip-path="url(#bB)" fill="#fff"/></g><g opacity=".15" clip-path="url(#b)"><defs><path id="bC" d="M434.984 31.014h12.5v12.5h-12.5z"/></defs><clipPath id="bD"><use xlink:href="#bC" overflow="visible"/></clipPath><path d="M437.278 35.065c.97 0 1.757-.787 1.757-1.757 0-1.149.84-2.175 1.983-2.284a2.2 2.2 0 0 1 2.415 2.189v.095c0 .97.787 1.757 1.758 1.757 1.148 0 2.174.839 2.283 1.983a2.2 2.2 0 0 1-2.189 2.415h-.094c-.971 0-1.758.787-1.758 1.757 0 1.149-.84 2.175-1.983 2.283a2.2 2.2 0 0 1-2.415-2.188v-.095c0-.97-.787-1.757-1.757-1.757h-.095a2.2 2.2 0 0 1-2.188-2.415c.109-1.144 1.134-1.983 2.283-1.983" clip-path="url(#bD)" fill="#fff"/></g><g opacity=".15" clip-path="url(#b)"><defs><path id="bE" d="M605.834 120.903h16.799v16.799h-16.799z"/></defs><clipPath id="bF"><use xlink:href="#bE" overflow="visible"/></clipPath><path d="M608.916 126.347a2.362 2.362 0 0 0 2.362-2.362c0-1.543 1.128-2.922 2.665-3.068a2.955 2.955 0 0 1 3.246 2.941v.127a2.362 2.362 0 0 0 2.361 2.362c1.544 0 2.923 1.128 3.069 2.665a2.956 2.956 0 0 1-2.941 3.246h-.128a2.36 2.36 0 0 0-2.361 2.361c0 1.544-1.129 2.923-2.666 3.069a2.956 2.956 0 0 1-3.245-2.942v-.127a2.361 2.361 0 0 0-2.362-2.361h-.127a2.956 2.956 0 0 1-2.941-3.246c.146-1.537 1.525-2.665 3.068-2.665" clip-path="url(#bF)" fill="#fff"/></g><g opacity=".25" clip-path="url(#b)"><defs><path id="bG" d="M562.847 74.708h11.435v11.436h-11.435z"/></defs><clipPath id="bH"><use xlink:href="#bG" overflow="visible"/></clipPath><path d="M564.945 78.414c.888 0 1.608-.72 1.608-1.607 0-1.051.768-1.99 1.814-2.089a2.011 2.011 0 0 1 2.209 2.002v.087c0 .887.72 1.607 1.608 1.607 1.051 0 1.989.769 2.089 1.814a2.013 2.013 0 0 1-2.003 2.209h-.086c-.888 0-1.608.721-1.608 1.608 0 1.051-.768 1.989-1.814 2.089a2.012 2.012 0 0 1-2.209-2.002v-.087c0-.887-.72-1.608-1.608-1.608h-.086a2.012 2.012 0 0 1-2.003-2.209c.1-1.045 1.039-1.814 2.089-1.814" clip-path="url(#bH)" fill="#00eff0"/></g><g opacity=".25" clip-path="url(#b)"><defs><path id="bI" d="M491.179 74.708h11.435v11.436h-11.435z"/></defs><clipPath id="bJ"><use xlink:href="#bI" overflow="visible"/></clipPath><path d="M493.277 78.414c.888 0 1.607-.72 1.607-1.607 0-1.051.768-1.99 1.814-2.089a2.012 2.012 0 0 1 2.21 2.002v.087c0 .887.72 1.607 1.608 1.607 1.05 0 1.989.769 2.088 1.814a2.011 2.011 0 0 1-2.002 2.209h-.086c-.888 0-1.608.721-1.608 1.608 0 1.051-.768 1.989-1.814 2.089a2.013 2.013 0 0 1-2.21-2.002v-.087c0-.887-.719-1.608-1.607-1.608h-.086a2.012 2.012 0 0 1-2.003-2.209c.1-1.045 1.038-1.814 2.089-1.814" clip-path="url(#bJ)" fill="#00eff0"/></g><g opacity=".25" clip-path="url(#b)"><defs><path id="bK" d="M768.095 109.648h11.436v11.435h-11.436z"/></defs><clipPath id="bL"><use xlink:href="#bK" overflow="visible"/></clipPath><path d="M770.193 113.354c.888 0 1.607-.72 1.607-1.607 0-1.051.769-1.99 1.814-2.089a2.012 2.012 0 0 1 2.209 2.002v.087c0 .887.72 1.607 1.607 1.607 1.051 0 1.99.768 2.089 1.814a2.012 2.012 0 0 1-2.002 2.209h-.087c-.888 0-1.607.72-1.607 1.608 0 1.051-.768 1.989-1.814 2.089a2.012 2.012 0 0 1-2.209-2.002v-.087c0-.888-.72-1.608-1.607-1.608h-.087a2.012 2.012 0 0 1-2.002-2.209c.1-1.046 1.039-1.814 2.089-1.814" clip-path="url(#bL)" fill="#00eff0"/></g><g opacity=".25" clip-path="url(#b)"><defs><path id="bM" d="M953.477 372.115h11.436v11.436h-11.436z"/></defs><clipPath id="bN"><use xlink:href="#bM" overflow="visible"/></clipPath><path d="M955.574 375.821c.889 0 1.608-.72 1.608-1.607 0-1.051.768-1.989 1.813-2.089 1.2-.114 2.21.826 2.21 2.002v.087c0 .888.72 1.607 1.607 1.607 1.051 0 1.989.769 2.089 1.814a2.012 2.012 0 0 1-2.002 2.209h-.087c-.888 0-1.607.72-1.607 1.607 0 1.051-.769 1.989-1.814 2.089a2.012 2.012 0 0 1-2.209-2.002v-.087c0-.888-.72-1.607-1.608-1.607h-.086a2.011 2.011 0 0 1-2.002-2.209c.1-1.045 1.038-1.814 2.088-1.814" clip-path="url(#bN)" fill="#00eff0"/></g><g opacity=".25" clip-path="url(#b)"><defs><path id="bO" d="M473.621 259h11.435v11.435h-11.435z"/></defs><clipPath id="bP"><use xlink:href="#bO" overflow="visible"/></clipPath><path d="M475.719 262.706c.888 0 1.608-.72 1.608-1.608 0-1.051.768-1.989 1.814-2.089a2.012 2.012 0 0 1 2.209 2.003v.086c0 .888.72 1.608 1.608 1.608 1.051 0 1.989.768 2.089 1.814a2.012 2.012 0 0 1-2.002 2.209h-.087c-.888 0-1.608.72-1.608 1.608 0 1.051-.768 1.989-1.814 2.089a2.012 2.012 0 0 1-2.209-2.003v-.086c0-.888-.72-1.608-1.608-1.608h-.086a2.01 2.01 0 0 1-2.002-2.209c.098-1.046 1.037-1.814 2.088-1.814" clip-path="url(#bP)" fill="#00eff0"/></g><g opacity=".15" clip-path="url(#b)"><defs><path id="bQ" d="M497.629 191.917h11.436v11.435h-11.436z"/></defs><clipPath id="bR"><use xlink:href="#bQ" overflow="visible"/></clipPath><path d="M499.728 195.623c.888 0 1.608-.72 1.608-1.608 0-1.051.768-1.989 1.814-2.088a2.01 2.01 0 0 1 2.209 2.002v.086c0 .888.72 1.608 1.608 1.608 1.051 0 1.989.768 2.089 1.814a2.013 2.013 0 0 1-2.003 2.209h-.086c-.888 0-1.608.72-1.608 1.608 0 1.051-.768 1.989-1.814 2.089a2.012 2.012 0 0 1-2.209-2.003v-.086c0-.888-.72-1.608-1.608-1.608h-.086a2.012 2.012 0 0 1-2.003-2.209c.099-1.046 1.037-1.814 2.089-1.814" clip-path="url(#bR)" fill="#fff"/></g><g opacity=".15" clip-path="url(#b)"><defs><path id="bS" d="M401.5 88.231h11.435v11.435H401.5z"/></defs><clipPath id="bT"><use xlink:href="#bS" overflow="visible"/></clipPath><path d="M403.598 91.937c.888 0 1.608-.72 1.608-1.608 0-1.05.768-1.989 1.814-2.088a2.01 2.01 0 0 1 2.209 2.002v.086c0 .888.72 1.608 1.608 1.608 1.051 0 1.989.768 2.089 1.814a2.013 2.013 0 0 1-2.003 2.209h-.086c-.888 0-1.608.72-1.608 1.608 0 1.051-.768 1.989-1.814 2.089a2.012 2.012 0 0 1-2.209-2.003v-.086c0-.888-.72-1.608-1.608-1.608h-.086a2.012 2.012 0 0 1-2.003-2.209c.1-1.046 1.038-1.814 2.089-1.814" clip-path="url(#bT)" fill="#fff"/></g><g opacity=".25" clip-path="url(#b)"><defs><path id="bU" d="M361.76 166.737h5.915v5.915h-5.915z"/></defs><clipPath id="bV"><use xlink:href="#bU" overflow="visible"/></clipPath><path d="M362.845 168.654a.833.833 0 0 0 .832-.832c0-.543.397-1.029.938-1.08a1.04 1.04 0 0 1 1.143 1.036v.044c0 .459.372.832.832.832.543 0 1.028.397 1.08.938a1.04 1.04 0 0 1-1.035 1.143h-.045a.832.832 0 0 0-.832.832c0 .543-.397 1.028-.938 1.08a1.04 1.04 0 0 1-1.143-1.035v-.045a.833.833 0 0 0-.832-.832h-.044a1.04 1.04 0 0 1-1.036-1.143c.051-.541.537-.938 1.08-.938" clip-path="url(#bV)" fill="#00eff0"/></g><g opacity=".25" clip-path="url(#b)"><defs><path id="bW" d="M344.978 70.009h12.411V82.42h-12.411z"/></defs><clipPath id="bX"><use xlink:href="#bW" overflow="visible"/></clipPath><path d="M347.255 74.031c.963 0 1.745-.781 1.745-1.745 0-1.14.833-2.159 1.968-2.267a2.183 2.183 0 0 1 2.398 2.173v.094c0 .964.782 1.745 1.745 1.745 1.141 0 2.159.833 2.268 1.969a2.185 2.185 0 0 1-2.174 2.398h-.094c-.963 0-1.745.781-1.745 1.744 0 1.141-.833 2.16-1.968 2.267A2.183 2.183 0 0 1 349 80.237v-.095c0-.963-.782-1.744-1.745-1.744h-.094A2.183 2.183 0 0 1 344.988 76c.108-1.136 1.126-1.969 2.267-1.969" clip-path="url(#bX)" fill="#00eff0"/></g><g opacity=".25" clip-path="url(#b)"><defs><path id="bY" d="M550.248 218.138h15.819v15.818h-15.819z"/></defs><clipPath id="bZ"><use xlink:href="#bY" overflow="visible"/></clipPath><path d="M553.151 223.264a2.224 2.224 0 0 0 2.224-2.224c0-1.453 1.063-2.751 2.509-2.889a2.784 2.784 0 0 1 3.057 2.77v.119c0 1.228.995 2.224 2.224 2.224 1.453 0 2.751 1.062 2.889 2.51a2.784 2.784 0 0 1-2.77 3.056h-.119a2.224 2.224 0 0 0-2.224 2.224c0 1.453-1.063 2.751-2.51 2.889a2.783 2.783 0 0 1-3.056-2.77v-.119a2.224 2.224 0 0 0-2.224-2.224h-.12a2.783 2.783 0 0 1-2.769-3.056c.138-1.448 1.435-2.51 2.889-2.51" clip-path="url(#bZ)" fill="#ff519e"/></g><path d="M538.451 21.333a2.717 2.717 0 1 0 5.434 0 2.717 2.717 0 0 0-5.434 0" clip-path="url(#b)" fill="#fff"/><g opacity=".15" clip-path="url(#b)"><defs><path id="ca" d="M420.086 265h5.435v5.435h-5.435z"/></defs><clipPath id="cb"><use xlink:href="#ca" overflow="visible"/></clipPath><path d="M420.085 267.718a2.718 2.718 0 1 0 5.436-.002 2.718 2.718 0 0 0-5.436.002" clip-path="url(#cb)" fill="#fff"/></g><g opacity=".15" clip-path="url(#b)"><defs><path id="cc" d="M1101.75 281.2h5.439v5.435h-5.439z"/></defs><clipPath id="cd"><use xlink:href="#cc" overflow="visible"/></clipPath><path d="M1101.75 283.918a2.717 2.717 0 1 0 5.435 0 2.717 2.717 0 0 0-5.435 0" clip-path="url(#cd)" fill="#fff"/></g><g opacity=".25" clip-path="url(#b)"><defs><path id="ce" d="M342.26 271.616h5.435v5.435h-5.435z"/></defs><clipPath id="cf"><use xlink:href="#ce" overflow="visible"/></clipPath><path d="M342.26 274.333a2.717 2.717 0 1 0 5.435 0 2.717 2.717 0 0 0-5.435 0" clip-path="url(#cf)" fill="#ff519e"/></g><g opacity=".25" clip-path="url(#b)"><defs><path id="cg" d="M38.029 231.63h5.435v5.435h-5.435z"/></defs><clipPath id="ch"><use xlink:href="#cg" overflow="visible"/></clipPath><path d="M38.029 234.347a2.718 2.718 0 1 0 5.436 0 2.718 2.718 0 0 0-5.436 0" clip-path="url(#ch)" fill="#ff519e"/></g><g opacity=".25" clip-path="url(#b)"><defs><path id="ci" d="M197.044 274.885h5.435v5.435h-5.435z"/></defs><clipPath id="cj"><use xlink:href="#ci" overflow="visible"/></clipPath><path d="M197.043 277.602a2.718 2.718 0 1 0 5.436 0 2.718 2.718 0 0 0-5.436 0" clip-path="url(#cj)" fill="#00eff0"/></g><g opacity=".25" clip-path="url(#b)"><defs><path id="ck" d="M596.56 45.671h5.436v5.435h-5.436z"/></defs><clipPath id="cl"><use xlink:href="#ck" overflow="visible"/></clipPath><path d="M596.561 48.388a2.717 2.717 0 1 0 5.435.001 2.717 2.717 0 0 0-5.435-.001" clip-path="url(#cl)" fill="#ff519e"/></g><g opacity=".25" clip-path="url(#b)"><defs><path id="cm" d="M1274.561 196.303H1280v5.435h-5.439z"/></defs><clipPath id="cn"><use xlink:href="#cm" overflow="visible"/></clipPath><path d="M1274.564 199.021a2.718 2.718 0 1 0 5.436-.002 2.718 2.718 0 0 0-5.436.002" clip-path="url(#cn)" fill="#ff519e"/></g><g opacity=".25" clip-path="url(#b)"><defs><path id="co" d="M712.501 112.648h5.435v5.435h-5.435z"/></defs><clipPath id="cp"><use xlink:href="#co" overflow="visible"/></clipPath><path d="M712.5 115.365a2.718 2.718 0 1 0 5.436 0 2.718 2.718 0 0 0-5.436 0" clip-path="url(#cp)" fill="#00eff0"/></g><g opacity=".25" clip-path="url(#b)"><defs><path id="cq" d="M662.536 53.58h5.435v5.435h-5.435z"/></defs><clipPath id="cr"><use xlink:href="#cq" overflow="visible"/></clipPath><path d="M662.536 56.297a2.718 2.718 0 1 0 5.436 0 2.718 2.718 0 0 0-5.436 0" clip-path="url(#cr)" fill="#00eff0"/></g><g opacity=".25" clip-path="url(#b)"><defs><path id="cs" d="M561.158 281.297h5.435v5.435h-5.435z"/></defs><clipPath id="ct"><use xlink:href="#cs" overflow="visible"/></clipPath><path d="M561.158 284.015a2.718 2.718 0 1 0 5.435-.001 2.718 2.718 0 0 0-5.435.001" clip-path="url(#ct)" fill="#00eff0"/></g><g opacity=".25" clip-path="url(#b)"><defs><path id="cu" d="M1166.939 249.334h5.431v5.435h-5.431z"/></defs><clipPath id="cv"><use xlink:href="#cu" overflow="visible"/></clipPath><path d="M1166.938 252.051a2.718 2.718 0 1 0 5.436 0 2.718 2.718 0 0 0-5.436 0" clip-path="url(#cv)" fill="#00eff0"/></g><g opacity=".25" clip-path="url(#b)"><defs><path id="cw" d="M1328.28 60.929h5.439v5.435h-5.439z"/></defs><clipPath id="cx"><use xlink:href="#cw" overflow="visible"/></clipPath><path d="M1328.282 63.646a2.717 2.717 0 1 0 5.435 0 2.717 2.717 0 0 0-5.435 0" clip-path="url(#cx)" fill="#00eff0"/></g><path d="M675.7 123.8a2.718 2.718 0 1 0 5.436 0 2.718 2.718 0 0 0-5.436 0M508.782 319.364a2.718 2.718 0 1 1-5.436 0 2.718 2.718 0 0 1 5.436 0M199.761 470.733a2.718 2.718 0 1 1-5.436 0 2.718 2.718 0 0 1 5.436 0M335.232 24.051a2.718 2.718 0 1 1-5.436 0 2.718 2.718 0 0 1 5.436 0M648.673 506.56a2.718 2.718 0 1 1-5.436 0 2.718 2.718 0 0 1 5.436 0" clip-path="url(#b)" fill="#fff"/><path d="M104.658 499.03c0 6.315-5.121 11.438-11.437 11.438-6.315 0-11.436-5.122-11.436-11.438 0-6.316 5.121-11.437 11.436-11.437 6.316.001 11.437 5.121 11.437 11.437" clip-path="url(#b)" fill="#a10eec"/><path d="M1315.423 63.646c0 6.316-5.12 11.436-11.437 11.436-6.315 0-11.436-5.12-11.436-11.436s5.12-11.437 11.436-11.437c6.317 0 11.437 5.122 11.437 11.437" clip-path="url(#b)" fill="#00eff0"/><path d="M654.674 68.243c0 6.316-5.12 11.436-11.436 11.436s-11.436-5.12-11.436-11.436 5.12-11.437 11.436-11.437 11.436 5.121 11.436 11.437" clip-path="url(#b)" fill="#ff519e"/><path d="M723.937 631.783c0 6.316-5.12 11.437-11.436 11.437s-11.436-5.12-11.436-11.437c0-6.315 5.12-11.437 11.436-11.437s11.436 5.122 11.436 11.437" clip-path="url(#b)" fill="#39fddf"/><g opacity=".25" clip-path="url(#b)"><defs><path id="cy" d="M909.661 37.573h11.885v11.881h-11.885z"/></defs><clipPath id="cz"><use xlink:href="#cy" overflow="visible"/></clipPath><path d="M915.252 38.951a1.776 1.776 0 0 1-2.354.873c-1.056-.484-2.352-.145-2.934.858a2.223 2.223 0 0 0 .991 3.141l.087.04a1.775 1.775 0 0 1 .873 2.355c-.484 1.054-.145 2.35.858 2.933a2.224 2.224 0 0 0 3.141-.992l.04-.087a1.775 1.775 0 0 1 2.354-.873c1.055.484 2.351.145 2.934-.859a2.223 2.223 0 0 0-.992-3.14l-.087-.041a1.775 1.775 0 0 1-.873-2.354l.04-.087a2.222 2.222 0 0 0-1.296-3.028c-1.095-.382-2.298.206-2.782 1.261" clip-path="url(#cz)" fill="#ff519e"/></g><g opacity=".25" clip-path="url(#b)"><defs><path id="cA" d="M759.864 22.328h11.435v11.435h-11.435z"/></defs><clipPath id="cB"><use xlink:href="#cA" overflow="visible"/></clipPath><path d="M761.962 26.034c.888 0 1.607-.72 1.607-1.607 0-1.051.769-1.99 1.814-2.089a2.011 2.011 0 0 1 2.209 2.002v.087c0 .887.72 1.607 1.608 1.607 1.05 0 1.988.768 2.088 1.814a2.01 2.01 0 0 1-2.002 2.209h-.086c-.889 0-1.608.72-1.608 1.608 0 1.051-.768 1.989-1.813 2.089a2.013 2.013 0 0 1-2.21-2.002v-.087c0-.888-.72-1.608-1.607-1.608h-.086a2.012 2.012 0 0 1-2.003-2.209c.1-1.046 1.038-1.814 2.089-1.814" clip-path="url(#cB)" fill="#00eff0"/></g><g opacity=".25" clip-path="url(#b)"><defs><path id="cC" d="M378.684 415.33h12.632v12.631h-12.632z"/></defs><clipPath id="cD"><use xlink:href="#cC" overflow="visible"/></clipPath><path d="M388.998 419.423a1.776 1.776 0 0 1-1.776-1.775c0-1.16-.849-2.197-2.004-2.307a2.222 2.222 0 0 0-2.44 2.211v.096c0 .98-.795 1.775-1.776 1.775-1.161 0-2.197.849-2.307 2.004a2.221 2.221 0 0 0 2.212 2.44h.095c.981 0 1.776.796 1.776 1.776 0 1.16.848 2.197 2.004 2.307a2.222 2.222 0 0 0 2.44-2.211v-.096c0-.98.795-1.776 1.776-1.776h.095c1.3 0 2.339-1.114 2.212-2.44-.11-1.156-1.146-2.004-2.307-2.004" clip-path="url(#cD)" fill="#ff519e"/></g><g opacity=".15"><defs><path id="cE" d="M1412.625 522.077h27.374v27.376h-27.374z"/></defs><clipPath id="cG"><use xlink:href="#cE" overflow="visible"/></clipPath><defs><filter id="cF" filterUnits="userSpaceOnUse" x="1412.624" y="522.075" width="27.379" height="27.38"><feFlood result="back" flood-color="#fff" flood-opacity="1"/><feBlend in="SourceGraphic" in2="back"/></filter></defs><mask maskUnits="userSpaceOnUse" x="1412.624" y="522.075" width="27.379" height="27.38" id="cJ"><g enable-background="new" filter="url(#cF)"><defs><path id="cH" d="M1410.405 519.203h31.999v33h-31.999z"/></defs><clipPath id="cI" clip-path="url(#cG)"><use xlink:href="#cH" overflow="visible"/></clipPath><g clip-path="url(#cI)"><image width="32" height="33" xlink:href="93F0D40D7CB397D6.jpg" transform="rotate(180 721.187 276.143)" overflow="visible"/></g></g></mask><g clip-path="url(#cG)" mask="url(#cJ)"><defs><path id="cK" d="M1412.625 522.077h27.374v27.376h-27.374z"/></defs><clipPath id="cL"><use xlink:href="#cK" overflow="visible"/></clipPath><path d="M1417.649 540.582a3.85 3.85 0 0 1 3.849 3.849c0 2.516 1.838 4.761 4.344 5a4.819 4.819 0 0 0 5.289-4.795v-.205a3.849 3.849 0 0 1 3.847-3.851c2.517 0 4.762-1.839 5-4.344a4.817 4.817 0 0 0-4.794-5.288l-.205.001a3.85 3.85 0 0 1-3.85-3.849c0-2.517-1.841-4.762-4.345-5.001a4.816 4.816 0 0 0-5.287 4.795l-.002.207a3.848 3.848 0 0 1-3.848 3.849l-.207.001a4.816 4.816 0 0 0-4.792 5.29c.238 2.504 2.485 4.341 5.001 4.341" clip-path="url(#cL)" fill="#fff"/></g></g><g opacity=".25"><defs><path id="cM" d="M1164.896 380.235h5.915v5.915h-5.915z"/></defs><clipPath id="cN"><use xlink:href="#cM" overflow="visible"/></clipPath><path d="M1165.982 384.233c.458 0 .832.372.832.831 0 .544.397 1.029.938 1.081a1.041 1.041 0 0 0 1.142-1.036l.001-.045a.83.83 0 0 1 .831-.831c.544 0 1.028-.397 1.08-.939a1.042 1.042 0 0 0-1.035-1.143h-.046a.831.831 0 0 1-.831-.832c0-.542-.398-1.028-.938-1.08a1.043 1.043 0 0 0-1.143 1.037v.043a.832.832 0 0 1-.831.832l-.046.001a1.04 1.04 0 0 0-1.035 1.144c.052.539.537.937 1.081.937" clip-path="url(#cN)" fill="#00eff0"/></g><path d="M1180.064 354.069c1.23 0 2.224.996 2.225 2.225-.001 1.453 1.062 2.751 2.51 2.889a2.786 2.786 0 0 0 3.057-2.77l-.001-.12c0-1.229.995-2.225 2.225-2.225 1.452 0 2.751-1.062 2.888-2.509a2.783 2.783 0 0 0-2.77-3.056l-.119-.001a2.225 2.225 0 0 1-2.225-2.223c0-1.453-1.063-2.752-2.51-2.89a2.785 2.785 0 0 0-3.057 2.771l.001.119a2.225 2.225 0 0 1-2.224 2.225l-.121-.001a2.785 2.785 0 0 0-2.77 3.057c.141 1.447 1.438 2.509 2.891 2.509" fill="#fff"/><g opacity=".25"><defs><path id="cO" d="M1221.962 319.149h12.631v12.631h-12.631z"/></defs><clipPath id="cP"><use xlink:href="#cO" overflow="visible"/></clipPath><path d="M1224.28 327.688c.981 0 1.776.795 1.777 1.775-.001 1.16.849 2.197 2.004 2.307a2.221 2.221 0 0 0 2.438-2.212v-.095c0-.98.795-1.776 1.776-1.776 1.16.001 2.196-.848 2.307-2.004a2.22 2.22 0 0 0-2.213-2.439l-.094-.001a1.776 1.776 0 0 1-1.777-1.775c0-1.161-.848-2.198-2.004-2.308a2.223 2.223 0 0 0-2.439 2.212l.001.096a1.78 1.78 0 0 1-1.776 1.777l-.095-.001a2.222 2.222 0 0 0-2.213 2.44c.112 1.155 1.147 2.003 2.308 2.004" clip-path="url(#cP)" fill="#ff519e"/></g><path d="M991.76 537.044a2.717 2.717 0 1 1 2.266-4.94 2.717 2.717 0 0 1-2.266 4.94" fill="#00eff0"/><path fill="none" d="M990.176 531.856h5.435v5.436h-5.435z"/><g opacity=".15"><defs><path id="cQ" d="M1421.288 530.506h10.049v10.049h-10.049z"/></defs><clipPath id="cR"><use xlink:href="#cQ" overflow="visible"/></clipPath><path d="M1429.493 537.297c-.779 0-1.412.634-1.411 1.414 0 .923-.676 1.748-1.595 1.836a1.769 1.769 0 0 1-1.941-1.758l-.001-.077a1.41 1.41 0 0 0-1.412-1.413c-.923-.001-1.748-.674-1.835-1.594a1.766 1.766 0 0 1 1.758-1.942h.077c.78 0 1.413-.633 1.413-1.411 0-.924.674-1.749 1.593-1.837a1.768 1.768 0 0 1 1.942 1.76l-.001.076c0 .779.633 1.412 1.412 1.411l.076.001a1.768 1.768 0 0 1 1.761 1.94c-.089.921-.912 1.594-1.836 1.594" clip-path="url(#cR)" fill="#fff"/></g><g opacity=".15"><defs><path id="cS" d="M1139.394 610.118h16.799v16.8h-16.799z"/></defs><clipPath id="cT"><use xlink:href="#cS" overflow="visible"/></clipPath><path d="M1153.111 621.472a2.364 2.364 0 0 0-2.362 2.362c.001 1.544-1.128 2.923-2.666 3.07a2.957 2.957 0 0 1-3.246-2.941v-.127a2.362 2.362 0 0 0-2.36-2.362c-1.544.001-2.923-1.127-3.069-2.663a2.954 2.954 0 0 1 2.941-3.246l.127-.001a2.362 2.362 0 0 0 2.361-2.361c-.002-1.545 1.128-2.924 2.665-3.069a2.955 2.955 0 0 1 3.246 2.941v.127a2.36 2.36 0 0 0 2.361 2.361l.127-.001a2.955 2.955 0 0 1 2.942 3.246c-.146 1.537-1.524 2.665-3.067 2.664" clip-path="url(#cT)" fill="#fff"/></g><g opacity=".25"><defs><path id="cU" d="M1187.75 661.67h11.435v11.437h-11.435z"/></defs><clipPath id="cV"><use xlink:href="#cU" overflow="visible"/></clipPath><path d="M1197.086 669.4a1.607 1.607 0 0 0-1.606 1.607c-.001 1.051-.769 1.99-1.814 2.089a2.012 2.012 0 0 1-2.209-2.002l.001-.086a1.61 1.61 0 0 0-1.608-1.607c-1.052 0-1.99-.77-2.09-1.813a2.014 2.014 0 0 1 2.002-2.21h.088a1.609 1.609 0 0 0 1.606-1.608c0-1.049.768-1.988 1.814-2.09a2.014 2.014 0 0 1 2.209 2.003l.001.087a1.605 1.605 0 0 0 1.606 1.607h.086a2.012 2.012 0 0 1 2.003 2.21c-.099 1.045-1.038 1.813-2.089 1.813" clip-path="url(#cV)" fill="#00eff0"/></g><g opacity=".25"><defs><path id="cW" d="M1259.418 661.662h11.434V673.1h-11.434z"/></defs><clipPath id="cX"><use xlink:href="#cW" overflow="visible"/></clipPath><path d="M1268.755 669.392a1.61 1.61 0 0 0-1.608 1.607c.001 1.051-.766 1.99-1.813 2.089a2.012 2.012 0 0 1-2.21-2.002l.001-.085c0-.888-.721-1.607-1.607-1.607-1.051 0-1.991-.77-2.089-1.815a2.012 2.012 0 0 1 2.001-2.208l.087-.001c.887 0 1.607-.721 1.607-1.607 0-1.05.768-1.988 1.814-2.089a2.012 2.012 0 0 1 2.209 2v.089c.001.886.72 1.607 1.607 1.606l.086.001a2.011 2.011 0 0 1 2.004 2.208c-.1 1.045-1.038 1.815-2.089 1.814" clip-path="url(#cX)" fill="#00eff0"/></g><g opacity=".25"><defs><path id="cY" d="M1276.954 477.369h11.437v11.435h-11.437z"/></defs><clipPath id="cZ"><use xlink:href="#cY" overflow="visible"/></clipPath><path d="M1286.291 485.098a1.61 1.61 0 0 0-1.606 1.609c0 1.051-.769 1.988-1.814 2.088a2.01 2.01 0 0 1-2.209-2.002v-.086c0-.889-.721-1.608-1.607-1.608-1.052.001-1.99-.768-2.091-1.812a2.013 2.013 0 0 1 2.002-2.209l.088-.001a1.606 1.606 0 0 0 1.606-1.607c.001-1.052.769-1.99 1.815-2.09a2.015 2.015 0 0 1 2.21 2.003l-.001.086c0 .888.721 1.608 1.608 1.607l.086.001a2.008 2.008 0 0 1 2.002 2.208c-.099 1.045-1.037 1.813-2.089 1.813" clip-path="url(#cZ)" fill="#00eff0"/></g><g opacity=".15"><defs><path id="da" d="M1252.954 544.456h11.435v11.435h-11.435z"/></defs><clipPath id="db"><use xlink:href="#da" overflow="visible"/></clipPath><path d="M1262.291 552.184a1.61 1.61 0 0 0-1.608 1.608c0 1.052-.768 1.99-1.813 2.089a2.011 2.011 0 0 1-2.209-2.002v-.086a1.607 1.607 0 0 0-1.609-1.607c-1.05 0-1.987-.768-2.088-1.814a2.012 2.012 0 0 1 2.002-2.209h.087c.888 0 1.608-.72 1.608-1.608-.001-1.051.768-1.988 1.812-2.089a2.011 2.011 0 0 1 2.209 2.002v.087c0 .888.721 1.608 1.608 1.608l.086-.001a2.013 2.013 0 0 1 2.004 2.209c-.1 1.045-1.037 1.813-2.089 1.813" clip-path="url(#db)" fill="#fff"/></g><g opacity=".15"><defs><path id="dc" d="M1349.095 648.13h11.436v11.436h-11.436z"/></defs><clipPath id="dd"><use xlink:href="#dc" overflow="visible"/></clipPath><path d="M1358.434 655.859c-.89.001-1.609.72-1.607 1.608-.002 1.051-.77 1.988-1.814 2.088a2.01 2.01 0 0 1-2.21-2.002l.001-.084a1.609 1.609 0 0 0-1.609-1.609c-1.052-.001-1.989-.768-2.088-1.812a2.012 2.012 0 0 1 2.002-2.211l.085.001c.888 0 1.608-.721 1.608-1.608.001-1.052.768-1.99 1.813-2.089a2.01 2.01 0 0 1 2.209 2.002l.001.085c0 .89.719 1.609 1.607 1.609l.087-.001a2.01 2.01 0 0 1 2.002 2.209c-.099 1.045-1.037 1.813-2.087 1.814" clip-path="url(#dd)" fill="#fff"/></g><g opacity=".25"><defs><path id="de" d="M1394.347 575.139h5.914v5.916h-5.914z"/></defs><clipPath id="df"><use xlink:href="#de" overflow="visible"/></clipPath><path d="M1399.176 579.137a.835.835 0 0 0-.833.832c.001.543-.396 1.03-.937 1.08a1.04 1.04 0 0 1-1.143-1.034v-.046a.832.832 0 0 0-.832-.831c-.543 0-1.028-.396-1.08-.938a1.04 1.04 0 0 1 1.035-1.143h.045a.835.835 0 0 0 .832-.833c0-.543.396-1.028.937-1.079a1.04 1.04 0 0 1 1.144 1.035l-.001.044a.834.834 0 0 0 .834.832h.043a1.04 1.04 0 0 1 1.036 1.143c-.051.54-.537.937-1.08.938" clip-path="url(#df)" fill="#00eff0"/></g><g opacity=".25"><defs><path id="dg" d="M1404.643 665.37h12.41v12.411h-12.41z"/></defs><clipPath id="dh"><use xlink:href="#dg" overflow="visible"/></clipPath><path d="M1414.776 673.758c-.962 0-1.744.782-1.743 1.745 0 1.141-.834 2.159-1.97 2.268a2.183 2.183 0 0 1-2.396-2.173l-.001-.094a1.743 1.743 0 0 0-1.745-1.744c-1.141-.001-2.159-.834-2.268-1.97a2.184 2.184 0 0 1 2.174-2.398h.093c.964 0 1.746-.781 1.746-1.744-.001-1.142.833-2.16 1.968-2.267a2.182 2.182 0 0 1 2.397 2.172l.001.095a1.743 1.743 0 0 0 1.744 1.743h.095a2.186 2.186 0 0 1 2.174 2.399c-.109 1.136-1.127 1.969-2.269 1.968" clip-path="url(#dh)" fill="#00eff0"/></g><g opacity=".25"><defs><path id="di" d="M1195.948 513.858h15.818v15.816h-15.818z"/></defs><clipPath id="dj"><use xlink:href="#di" overflow="visible"/></clipPath><path d="M1208.865 524.55a2.225 2.225 0 0 0-2.225 2.224c0 1.453-1.062 2.752-2.509 2.889a2.785 2.785 0 0 1-3.058-2.769v-.119a2.222 2.222 0 0 0-2.224-2.223c-1.453-.001-2.752-1.062-2.89-2.512a2.783 2.783 0 0 1 2.771-3.055l.118-.001a2.225 2.225 0 0 0 2.224-2.225c0-1.453 1.062-2.75 2.51-2.889a2.782 2.782 0 0 1 3.056 2.769v.119c0 1.229.997 2.225 2.225 2.225l.12.001a2.784 2.784 0 0 1 2.771 3.055c-.139 1.448-1.437 2.511-2.889 2.511" clip-path="url(#dj)" fill="#ff519e"/></g><g opacity=".15"><defs><path id="dk" d="M1336.489 477.362h5.436v5.437h-5.436z"/></defs><clipPath id="dl"><use xlink:href="#dk" overflow="visible"/></clipPath><path d="M1341.925 480.08a2.718 2.718 0 1 0-5.436.004 2.718 2.718 0 0 0 5.436-.004" clip-path="url(#dl)" fill="#fff"/></g><g opacity=".25"><defs><path id="dm" d="M1414.314 470.739h5.436v5.434h-5.436z"/></defs><clipPath id="dn"><use xlink:href="#dm" overflow="visible"/></clipPath><path d="M1419.749 473.455a2.718 2.718 0 1 0-5.436.002 2.718 2.718 0 0 0 5.436-.002" clip-path="url(#dn)" fill="#ff519e"/></g><g opacity=".25"><defs><path id="do" d="M1160.04 696.713h5.436v5.435h-5.436z"/></defs><clipPath id="dp"><use xlink:href="#do" overflow="visible"/></clipPath><path d="M1165.475 699.43a2.719 2.719 0 1 0-5.434.004 2.719 2.719 0 0 0 5.434-.004" clip-path="url(#dp)" fill="#ff519e"/></g><g opacity=".25"><defs><path id="dq" d="M1044.091 629.75h5.436v5.436h-5.436z"/></defs><clipPath id="dr"><use xlink:href="#dq" overflow="visible"/></clipPath><path d="M1049.527 632.466a2.718 2.718 0 1 0-5.436.002 2.718 2.718 0 0 0 5.436-.002" clip-path="url(#dr)" fill="#00eff0"/></g><g opacity=".25"><defs><path id="ds" d="M1195.415 461.082h5.435v5.436h-5.435z"/></defs><clipPath id="dt"><use xlink:href="#ds" overflow="visible"/></clipPath><path d="M1200.85 463.799a2.718 2.718 0 1 0-5.435.003 2.718 2.718 0 0 0 5.435-.003" clip-path="url(#dt)" fill="#00eff0"/></g><path d="M1086.327 624.027a2.719 2.719 0 0 0-5.438.001 2.72 2.72 0 0 0 5.438-.001m166.894-195.582" fill="#fff"/><g opacity=".25"><defs><path id="du" d="M1370.676 319.833h12.634v12.631h-12.634z"/></defs><clipPath id="dv"><use xlink:href="#du" overflow="visible"/></clipPath><path d="M1372.994 328.372a1.774 1.774 0 0 1 1.775 1.774c0 1.16.851 2.197 2.006 2.307a2.223 2.223 0 0 0 2.44-2.211l-.001-.096a1.775 1.775 0 0 1 1.775-1.775c1.16-.001 2.197-.851 2.306-2.005a2.218 2.218 0 0 0-2.212-2.439l-.094-.001a1.776 1.776 0 0 1-1.776-1.776c0-1.159-.849-2.196-2.005-2.306a2.222 2.222 0 0 0-2.44 2.211l.001.096a1.777 1.777 0 0 1-1.775 1.776l-.096.001a2.22 2.22 0 0 0-2.212 2.44c.111 1.155 1.147 2.003 2.308 2.004" clip-path="url(#dv)" fill="#ff519e"/></g></svg>