<svg xmlns="http://www.w3.org/2000/svg" xmlns:xlink="http://www.w3.org/1999/xlink" width="130.846" height="123.967" viewBox="0 0 130.846 123.967"><g opacity=".25"><defs><path id="a" d="M14.83 108.279h5.436v5.436H14.83z"/></defs><clipPath id="b"><use xlink:href="#a" overflow="visible"/></clipPath><path d="M14.83 110.997a2.718 2.718 0 1 0 5.436 0 2.718 2.718 0 0 0-5.436 0" clip-path="url(#b)" fill="#ff519e"/></g><g opacity=".25"><defs><path id="c" d="M104.731 92.448h5.435v5.436h-5.435z"/></defs><clipPath id="d"><use xlink:href="#c" overflow="visible"/></clipPath><path d="M104.731 95.166a2.718 2.718 0 1 0 5.436 0 2.718 2.718 0 0 0-5.436 0" clip-path="url(#d)" fill="#00eff0"/></g><g opacity=".25"><defs><path id="e" d="M35.324 101.984h8.999v8.999h-8.999z"/></defs><clipPath id="f"><use xlink:href="#e" overflow="visible"/></clipPath><path d="M36.975 104.9c.699 0 1.265-.566 1.265-1.265 0-.827.605-1.566 1.428-1.644.944-.09 1.739.65 1.739 1.576v.068c0 .699.566 1.265 1.265 1.265.826 0 1.565.604 1.643 1.428a1.583 1.583 0 0 1-1.575 1.739h-.068c-.699 0-1.265.566-1.265 1.265 0 .826-.605 1.565-1.428 1.643a1.583 1.583 0 0 1-1.739-1.575v-.068c0-.699-.566-1.265-1.265-1.265h-.068a1.584 1.584 0 0 1-1.576-1.739c.079-.824.817-1.428 1.644-1.428" clip-path="url(#f)" fill="#00eff0"/></g><path d="M99.616 48.786a4.152 4.152 0 0 0-4.62-.858l5.868-5.868a4.156 4.156 0 0 0 0-5.876l-.529-.528a4.156 4.156 0 0 0-5.876 0l-1.09 1.089a4.44 4.44 0 0 1-6.282-6.276l1.496-1.498a4.155 4.155 0 0 0 0-5.877l-.528-.528a4.154 4.154 0 0 0-5.876 0L70.473 34.271a4.157 4.157 0 0 0-.748-4.856l-.528-.528a4.155 4.155 0 0 0-5.877 0L6.536 85.872c-8.714 8.715-8.714 22.844 0 31.559 8.715 8.714 22.844 8.714 31.559 0l62.049-62.241a4.154 4.154 0 0 0 0-5.876l-.528-.528z" fill="#00eff0"/><path d="M33.034 113.413c-6.467 6.467-16.99 6.467-23.458 0-6.466-6.467-6.466-16.99 0-23.457l12.893-12.893c6.467-6.467 16.99-6.467 23.457 0 6.467 6.468 6.467 16.991 0 23.457l-12.892 12.893z" fill="#181644"/><path d="M54.276 60.894l-5.962 5.962a2.764 2.764 0 1 1-3.91-3.91l1.8-1.799c1.07-1.07 1.179-2.829.141-3.931a2.765 2.765 0 0 0-3.969-.06L21.801 77.731c-1.07 1.07-1.179 2.829-.141 3.93a2.764 2.764 0 0 0 3.969.061l-3.754 3.755c-1.071 1.07-1.18 2.828-.141 3.93a2.764 2.764 0 0 0 3.968.061l7.999-7.999a2.765 2.765 0 0 0 3.909 3.91L27.042 95.948c-1.07 1.071-1.179 2.828-.141 3.93a2.764 2.764 0 0 0 3.969.061l5.55-5.549a2.763 2.763 0 0 0 0 3.909 2.763 2.763 0 0 0 3.909 0l-7.1 7.1c-1.071 1.071-1.179 2.829-.141 3.931a2.763 2.763 0 0 0 3.968.061L57.63 88.815c1.071-1.07 1.18-2.828.142-3.93a2.765 2.765 0 0 0-3.969-.061l7.1-7.1c1.071-1.071 1.179-2.829.142-3.931a2.765 2.765 0 0 0-3.969-.061l-3.595 3.596a2.764 2.764 0 1 1-3.91-3.91l8.696-8.696a2.764 2.764 0 0 0-.061-3.969c-1.101-1.038-2.86-.929-3.93.141m11.753-11.753l-8.374 8.374a2.764 2.764 0 1 1-3.909-3.91l8.374-8.373a2.763 2.763 0 1 1 3.909 3.909" fill="#181644"/><path d="M70.437 61.71l-8.374 8.374a2.764 2.764 0 1 1-3.91-3.91l8.374-8.374a2.764 2.764 0 1 1 3.91 3.91m12.006-19.825l-8.374 8.374a2.764 2.764 0 1 1-3.91-3.91l8.374-8.373a2.764 2.764 0 1 1 3.91 3.909" fill="#181644"/><path d="M44.279 82.217l-6.02 6.02a1.919 1.919 0 1 1-2.713-2.714l6.02-6.02a1.919 1.919 0 1 1 2.713 2.714m1.963-10.08l-6.02 6.02a1.919 1.919 0 1 1-2.713-2.714l6.02-6.019a1.917 1.917 0 0 1 2.713 0c.75.749.75 1.963 0 2.713M36.971 91.59c-.772-.695-1.98-.587-2.715.148l-.517.517a2.09 2.09 0 0 1-2.954-2.955 1.833 1.833 0 0 0-.037-2.627l-.127-.119a1.831 1.831 0 0 0-2.553.036l-2.478 2.478c.484-.811.324-1.9-.496-2.518-.773-.582-1.875-.446-2.559.238l-4.926 4.926c-.119.107-.242.208-.357.323l-2.524 2.523c-3.699 3.7-3.973 9.727-.407 13.556 3.743 4.019 10.038 4.103 13.889.253l1.046-1.046c.107-.071.209-.153.304-.248l5.955-5.955c.722-.721.829-1.899.163-2.672a1.909 1.909 0 0 0-1.968-.589l-.057-.091 3.393-3.393a1.918 1.918 0 0 0-.075-2.785" fill="#ff516c"/><path d="M106.7 22.921l-7.197 7.197a4.155 4.155 0 0 1-5.877-5.876l7.198-7.197a4.152 4.152 0 0 1 5.876 0 4.154 4.154 0 0 1 0 5.876M97.235 7.093l-7.197 7.197a4.155 4.155 0 0 1-5.877-5.876l7.198-7.197a4.154 4.154 0 1 1 5.876 5.876m32.393 7.34l-7.197 7.197a4.155 4.155 0 0 1-5.877-5.876l7.198-7.197a4.154 4.154 0 1 1 5.876 5.876" fill="#00eff0"/></svg>