<svg xmlns="http://www.w3.org/2000/svg" xmlns:xlink="http://www.w3.org/1999/xlink" width="545.247" height="486.689" viewBox="0 0 545.247 486.689"><defs><path id="a" d="M333.836 37.857c-64.674 24.358-122.819 59.282-172.824 103.806-50.341 44.825-89.918 97.136-117.633 155.478C14.506 357.923 0 420.065 0 486.689h544.247V0c-72.918 0-143.711 12.738-210.411 37.857"/></defs><clipPath id="b"><use xlink:href="#a" overflow="visible"/></clipPath><g opacity=".2" clip-path="url(#b)"><defs><path id="c" d="M-.134-8.684h563.711v506.515H-.134z"/></defs><clipPath id="d"><use xlink:href="#c" overflow="visible"/></clipPath><path d="M-.134 497.831c0-68.989 15.159-135.883 45.058-198.823 28.699-60.415 69.682-114.582 121.811-160.998 51.778-46.104 111.989-82.271 178.96-107.492C414.763 4.505 488.07-8.685 563.578-8.685V497.83H-.134z" clip-path="url(#d)" fill="#fd1999"/></g><path d="M544.247 42.246C268.575 42.246 46.1 241.23 46.1 486.689h498.147V42.246z" fill="#fd1999"/><path d="M544.247 90.91V43.137C268.575 43.137 46.1 241.23 46.1 486.689h226.319c0-172.876 109.963-322.289 271.828-395.779" fill="#fd1999"/><path d="M215.533 473.617c.981-8.897-5.958-16.428-14.657-16.428h-12.774a4.9 4.9 0 0 1-4.863-5.489l.011-.083a4.852 4.852 0 0 1 2.126-3.476c3.998-2.636 6.64-7.156 6.64-12.304 0-5.233-2.732-9.819-6.842-12.438h31.705c7.571 0 14.214-5.546 15.045-13.072.981-8.898-5.959-16.428-14.658-16.428l48.526-.444c27.701 0 51.151-21.414 52.585-49.077 1.548-29.881-22.222-54.594-51.764-54.594h-18.507c-12.265 0-23.52-4.27-32.392-11.385h57.438c7.57 0 14.215-5.547 15.045-13.072.981-8.898-5.959-16.428-14.657-16.428h-29.57c-9.063 0-16.382-7.405-16.273-16.471.105-8.911 7.361-16.082 16.273-16.082h29.152c7.942 0 14.776-6.103 15.15-14.036.398-8.47-6.351-15.464-14.733-15.464l98.104-.715c28.627 0 51.835-23.207 51.835-51.835 0-15.614-6.913-29.604-17.835-39.108h17.354c8.699 0 15.639-7.53 14.657-16.427-.83-7.526-7.474-13.073-15.045-13.073h-37.751a532.678 532.678 0 0 0-53.396 19.279l.004.012c-63.596 26.88-119.799 65.372-165.142 112.408-.584.605-1.14 1.219-2.065 1.684-.831.415-1.396 1.185-1.768 2.034-.271.617-.713 1.064-1.144 1.525a455.457 455.457 0 0 0-25.711 30.011l.002.021c-31.699 40.446-56.037 85.804-71.284 134.535l-.134.429a404.908 404.908 0 0 0-4.562 15.77l-.204.765a402.104 402.104 0 0 0-3.824 15.691l-.223 1.001a388.03 388.03 0 0 0-1.646 7.857c-.1.495-.328 1.286-.473 1.771-.35 1.175-.535 2.394-.646 3.616-.111 1.226-.352 2.415-.562 3.612a405.31 405.31 0 0 0-1.278 7.741c-.138.896-.25 1.799-.457 2.675-.294 1.25-.436 2.528-.53 3.81-.069.942-.215 1.865-.337 2.794a397.95 397.95 0 0 0-.928 7.686c-.047.419-.09.839-.135 1.258-.246 2.316-.496 4.633-.69 6.954-.035.426-.08.849-.117 1.274a407.043 407.043 0 0 0-.59 7.689c-.054.799-.101 1.602-.154 2.401-.147 2.238-.245 4.479-.359 6.72-.01.171-.019.343-.026.515a414.593 414.593 0 0 0-.294 9.601 403.227 403.227 0 0 0-.086 7.863h154.389c7.573-.001 14.215-5.548 15.045-13.073m329.174-191.213h-88.644c-15.63 0-28.842 12.255-29.271 27.879-.444 16.211 12.563 29.491 28.674 29.491h19.347c16.99 0 30.136 14.89 28.029 31.748-1.767 14.136-13.782 24.744-28.029 24.744h-19.347c-15.842 0-28.685 12.843-28.685 28.685 0 15.843 12.843 28.686 28.685 28.686h60c-15.842 0-28.685 12.842-28.685 28.685 0 1.485.113 2.944.33 4.368h57.135l.461-204.286z" fill="#a10eec"/><g opacity=".25"><defs><path id="e" d="M288.857 86.74h255.85v237.531h-255.85z"/></defs><clipPath id="f"><use xlink:href="#e" overflow="visible"/></clipPath><path d="M544.706 282.792c-51.607 10.258-118.763 10.022-169.503-38.142-32.616-30.96-49.546-71.521-50.318-120.558-.204-12.99.749-25.534 2.429-37.354a520.707 520.707 0 0 0-37.997 18.304 265.892 265.892 0 0 0-.427 19.617c.918 58.242 22.193 108.763 61.528 146.1 37.263 35.371 85.85 53.511 142.302 53.511 14.985 0 30.535-1.28 46.562-3.854 1.795-.288 3.574-.59 5.341-.903l.083-36.721z" clip-path="url(#f)" fill="#fff"/></g><g opacity=".25"><defs><path id="g" d="M134.507 206.404h409.99v205.814h-409.99z"/></defs><clipPath id="h"><use xlink:href="#g" overflow="visible"/></clipPath><path d="M544.5 374.315c-53.017-17.714-125.427-43.292-197.176-73.038-89.855-37.253-149.725-68.829-189.462-94.872a454.418 454.418 0 0 0-23.351 27.673 544.208 544.208 0 0 0 4.544 3.006c46.996 30.655 112.508 63.475 194.715 97.546 77.791 32.24 156.3 59.632 210.645 77.589l.085-37.904z" clip-path="url(#h)" fill="#fff"/></g><g opacity=".25"><defs><path id="i" d="M53.598 373.139h490.689v113.55H53.598z"/></defs><clipPath id="j"><use xlink:href="#i" overflow="visible"/></clipPath><path d="M544.282 471.12c-108.584 8.024-308.609 4.625-481.734-97.979a400.156 400.156 0 0 0-8.95 36.416 673.217 673.217 0 0 0 56.027 28.584c45.196 20.468 94.06 36.722 145.763 48.549h288.859l.035-15.57z" clip-path="url(#j)" fill="#fff"/></g><path d="M510.415 194.587h-77.112c-7.573 0-14.215 5.547-15.045 13.072-.981 8.897 5.958 16.428 14.657 16.428h77.112c7.571 0 14.215-5.547 15.045-13.073.982-8.896-5.959-16.427-14.657-16.427" fill="#a10eec"/><path d="M545.247 42.246C269.575 42.246 46.1 241.23 46.1 486.689" fill="none" stroke="#00eff0" stroke-width="5" stroke-miterlimit="10"/><g opacity=".25"><defs><path id="k" d="M389.127 54.704h155.98v87.091h-155.98z"/></defs><clipPath id="l"><use xlink:href="#k" overflow="visible"/></clipPath><path d="M545.104 105.49c-42.837-5.917-89.207-19.85-117.682-50.786a543.472 543.472 0 0 0-38.295 9.721c13.097 18.798 31.157 34.55 53.978 47.024 25.228 13.79 56.311 23.553 92.385 29.018 3.199.484 6.379.926 9.533 1.329l.081-36.306z" clip-path="url(#l)" fill="#fff"/></g></svg>