<svg xmlns="http://www.w3.org/2000/svg" xmlns:xlink="http://www.w3.org/1999/xlink" width="272.272" height="214.155" viewBox="0 0 272.272 214.155"><g opacity=".2"><defs><path id="a" d="M25.277 0h214.155v214.155H25.277z"/></defs><clipPath id="b"><use xlink:href="#a" overflow="visible"/></clipPath><path d="M25.277 107.078c0 59.137 47.94 107.077 107.077 107.077s107.078-47.94 107.078-107.077S191.491 0 132.354 0 25.277 47.94 25.277 107.078" clip-path="url(#b)" fill="#fff"/></g><path d="M51.139 107.078c0 44.854 36.361 81.216 81.215 81.216 44.855 0 81.216-36.362 81.216-81.216s-36.361-81.216-81.216-81.216c-44.854-.001-81.215 36.362-81.215 81.216" fill="#2ca0af"/><path d="M52.608 107.077c0 43.456 35.353 78.81 78.808 78.81a78.55 78.55 0 0 0 23.425-3.554c.027-.128.066-.252.08-.386a4.039 4.039 0 0 0-4.017-4.453h-14.616a4.037 4.037 0 0 1 0-8.074h5.756c2.111 0 4.036-1.519 4.246-3.62a4.038 4.038 0 0 0-4.016-4.453h-25.752a4.036 4.036 0 1 1 0-8.074h12.437c2.111 0 4.036-1.52 4.246-3.621a4.038 4.038 0 0 0-4.016-4.453h-20.324a4.037 4.037 0 0 1 0-8.074h7.148c2.112 0 4.036-1.519 4.246-3.62a4.037 4.037 0 0 0-4.016-4.453H96.457a4.036 4.036 0 0 1 0-8.074h18.165c2.112 0 4.036-1.519 4.246-3.62a4.038 4.038 0 0 0-4.016-4.454H92.857a4.037 4.037 0 1 1 0-8.073h17.171c2.111 0 4.035-1.52 4.246-3.621a4.039 4.039 0 0 0-4.016-4.453H89.099a4.036 4.036 0 1 1 0-8.074h25.522c2.112 0 4.036-1.519 4.246-3.62a4.038 4.038 0 0 0-4.016-4.454h-13.224a4.037 4.037 0 1 1 0-8.073h21.625c2.111 0 4.035-1.519 4.246-3.62a4.039 4.039 0 0 0-4.016-4.454h-17.679a4.036 4.036 0 1 1 0-8.074h18.98c2.112 0 4.036-1.519 4.246-3.62a4.038 4.038 0 0 0-4.016-4.453h-6.125a4.037 4.037 0 0 1 0-8.074h15.778c2.112 0 4.036-1.519 4.246-3.62a4.038 4.038 0 0 0-4.016-4.454h15.778c.926 0 1.807-.305 2.532-.81a78.556 78.556 0 0 0-21.79-3.088c-43.455 0-78.808 35.353-78.808 78.808m64.483 66.818a83.154 83.154 0 0 1-7.41-6.114 83.821 83.821 0 0 0 7.41 6.114m53.059-5.43a7.64 7.64 0 0 0 2.031.713 7.655 7.655 0 0 1-1.464-9.062l7.816-14.901a7.655 7.655 0 0 1 8.287-3.947 7.597 7.597 0 0 0-1.741-1.266 7.658 7.658 0 0 0-10.337 3.224l-7.816 14.902a7.656 7.656 0 0 0 3.224 10.337" fill="#168891"/><path d="M186.804 90.405a11.9 11.9 0 0 0 2.367-2.384c-4.843 1.818-10.493.333-13.754-4.013l-15.761-21.007c-3.262-4.346-3.106-10.187-.007-14.327-1.03.389-2.026.911-2.951 1.605-5.28 3.961-6.348 11.452-2.387 16.732l15.762 21.007c3.96 5.28 11.452 6.348 16.731 2.387" fill="#168891"/><path d="M163.978 49.244c3.34-2.506 8.096-1.828 10.602 1.512l16.767 22.347c2.506 3.34 1.827 8.096-1.513 10.602-3.34 2.506-8.096 1.827-10.602-1.513l-16.767-22.347c-2.506-3.34-1.827-8.096 1.513-10.601" fill="#168891"/><path d="M196.431 57.173c38.088-4.486 65.285-.89 68.731 11.113 5.335 18.585-48.286 50.285-119.765 70.804-71.479 20.52-133.75 22.088-139.085 3.503-3.188-11.106 14.678-26.895 44.826-42.183" fill="none" stroke="#00eff0" stroke-width="5" stroke-miterlimit="10"/><path d="M203.445 66.848c38.328 1.338 64.666 9.015 66.252 21.402 2.457 19.179-55.349 42.386-129.112 51.834-73.764 9.449-135.552 1.561-138.009-17.618-1.468-11.46 18.584-24.36 50.702-34.902" fill="none" stroke="#00eff0" stroke-width="5" stroke-miterlimit="10"/><circle cx="132.355" cy="107.078" r="81.216" fill="none" stroke="#00eff0" stroke-width="5" stroke-miterlimit="10"/></svg>