<svg xmlns="http://www.w3.org/2000/svg" xmlns:xlink="http://www.w3.org/1999/xlink" width="180.192" height="171.901" viewBox="0 0 180.192 171.901"><path d="M155.572 10.337c4.02 8.188.641 18.085-7.548 22.104-8.188 4.021-18.085.641-22.105-7.547-4.02-8.188-.641-18.085 7.548-22.105s18.084-.64 22.105 7.548m23.77 13.34a8.287 8.287 0 1 1-14.878 7.305 8.287 8.287 0 0 1 14.878-7.305" fill="#00eff0"/><g opacity=".2"><defs><path id="a" d="M0 0h171.899v171.901H0z"/></defs><clipPath id="b"><use xlink:href="#a" overflow="visible"/></clipPath><path d="M8.814 123.819c20.914 42.602 72.404 60.184 115.007 39.27 42.602-20.915 60.182-72.405 39.268-115.007C142.176 5.48 90.687-12.101 48.084 8.813 5.482 29.727-12.1 81.217 8.814 123.819" clip-path="url(#b)" fill="#00eff0"/></g><path d="M138.563 60.123C124.299 31.067 89.181 19.075 60.125 33.34c-29.057 14.264-41.048 49.382-26.783 78.438 14.264 29.056 49.382 41.048 78.438 26.783 29.055-14.264 41.047-49.382 26.783-78.438" fill="#168891"/><path d="M113.08 141.209c-30.47 14.959-67.428 2.339-82.386-28.13-14.959-30.471-2.339-67.429 28.131-82.387s67.428-2.339 82.386 28.132c14.958 30.469 2.339 67.427-28.131 82.385M61.425 35.987c-27.55 13.524-38.96 46.942-25.436 74.492 13.524 27.55 46.941 38.96 74.491 25.435 27.55-13.525 38.961-46.941 25.436-74.491-13.524-27.55-46.941-38.961-74.491-25.436" fill="#00eff0"/><path d="M35.989 110.478c13.524 27.55 46.941 38.961 74.49 25.437a55.512 55.512 0 0 0 13.746-9.545c-.023-.09-.037-.18-.07-.269a2.852 2.852 0 0 0-3.932-1.573l-9.267 4.549a2.851 2.851 0 0 1-2.512-5.119l3.648-1.791c1.339-.657 2.086-2.219 1.565-3.617a2.852 2.852 0 0 0-3.932-1.573l-16.327 8.015a2.85 2.85 0 1 1-2.512-5.119l7.886-3.871c1.338-.657 2.084-2.219 1.564-3.617a2.852 2.852 0 0 0-3.932-1.573l-12.886 6.325a2.85 2.85 0 1 1-2.511-5.118l4.531-2.225c1.339-.657 2.086-2.219 1.565-3.617a2.853 2.853 0 0 0-3.933-1.573l-12.544 6.158a2.85 2.85 0 1 1-2.513-5.118L79.63 99.99c1.339-.657 2.086-2.219 1.565-3.616a2.852 2.852 0 0 0-3.933-1.574l-13.943 6.845a2.85 2.85 0 0 1-3.815-1.303h-.001a2.853 2.853 0 0 1 1.304-3.816l10.886-5.343c1.338-.658 2.085-2.22 1.564-3.617a2.85 2.85 0 0 0-3.932-1.573l-13.414 6.585a2.852 2.852 0 0 1-2.514-5.119l16.182-7.943c1.339-.658 2.086-2.22 1.565-3.617a2.85 2.85 0 0 0-3.932-1.573l-8.384 4.115a2.851 2.851 0 1 1-2.513-5.118l13.709-6.731c1.34-.657 2.087-2.219 1.566-3.616a2.853 2.853 0 0 0-3.933-1.574L56.45 66.904a2.85 2.85 0 1 1-2.513-5.118l12.034-5.908c1.339-.657 2.086-2.219 1.565-3.616a2.855 2.855 0 0 0-3.934-1.574l-3.882 1.907a2.85 2.85 0 1 1-2.512-5.119l10.003-4.911c1.339-.657 2.086-2.219 1.565-3.616a2.853 2.853 0 0 0-3.933-1.574l10.003-4.911a3.128 3.128 0 0 0 1.353-1.301 55.456 55.456 0 0 0-14.775 4.824c-27.55 13.525-38.96 46.941-25.435 74.491m61.677 22.292" fill="#2ca0af"/><path d="M104.025 52.13l-16.833 8.812a3.166 3.166 0 1 1-2.938-5.611l16.833-8.812a3.167 3.167 0 0 1 2.938 5.611m21.667 12.056l-16.833 8.813a3.167 3.167 0 0 1-2.938-5.612l16.833-8.812a3.167 3.167 0 0 1 2.938 5.611m-22.713 23.72l-16.832 8.812a3.166 3.166 0 1 1-2.937-5.611l16.831-8.812a3.167 3.167 0 1 1 2.938 5.611m31.131 2.211l-16.833 8.812a3.166 3.166 0 1 1-2.938-5.611l16.833-8.812a3.167 3.167 0 1 1 2.938 5.611" fill="#2ca0af"/></svg>